<svg id="Layer_1" data-name="Layer 1" xmlns="http://www.w3.org/2000/svg" viewBox="0 0 801.45 185.16"><defs><style>.cls-1{fill:#fff;}</style></defs><path class="cls-1" d="M129.93,375.49a70.65,70.65,0,1,1,70.65-70.65A70.72,70.72,0,0,1,129.93,375.49Zm0-139.71A69.06,69.06,0,1,0,199,304.84,69.14,69.14,0,0,0,129.93,235.78Z" transform="translate(-34.79 -205.06)"/><path class="cls-1" d="M129.93,370.21a65.37,65.37,0,1,1,65.37-65.37A65.44,65.44,0,0,1,129.93,370.21Zm0-129.14a63.78,63.78,0,1,0,63.78,63.77A63.85,63.85,0,0,0,129.93,241.07Z" transform="translate(-34.79 -205.06)"/><path class="cls-1" d="M129.93,352.79a47.95,47.95,0,1,1,47.95-48A48,48,0,0,1,129.93,352.79Zm0-94.59a46.64,46.64,0,1,0,46.64,46.64A46.7,46.7,0,0,0,129.93,258.2Z" transform="translate(-34.79 -205.06)"/><rect class="cls-1" x="94.35" y="29.93" width="1.58" height="5.28"/><rect class="cls-1" x="148.06" y="240.13" width="5.28" height="1.58" transform="translate(-159.79 104.77) rotate(-72.01)"/><rect class="cls-1" x="166.79" y="249.67" width="5.28" height="1.59" transform="translate(-167.58 35.35) rotate(-54.02)"/><rect class="cls-1" x="181.66" y="264.53" width="5.28" height="1.58" transform="translate(-155.56 -46.03) rotate(-36.01)"/><rect class="cls-1" x="191.21" y="283.26" width="5.28" height="1.58" transform="translate(-113.14 -131.17) rotate(-18.02)"/><rect class="cls-1" x="159.71" y="98.96" width="5.28" height="1.58"/><rect class="cls-1" x="193.07" y="322.94" width="1.58" height="5.28" transform="translate(-210.43 204.5) rotate(-72.03)"/><rect class="cls-1" x="183.54" y="341.67" width="1.58" height="5.28" transform="translate(-237.4 86.28) rotate(-54.04)"/><rect class="cls-1" x="168.69" y="356.55" width="1.59" height="5.28" transform="translate(-213.69 -36.59) rotate(-36.04)"/><rect class="cls-1" x="149.96" y="366.11" width="1.58" height="5.28" transform="matrix(0.95, -0.31, 0.31, 0.95, -141.63, -140.2)"/><rect class="cls-1" x="94.41" y="164.35" width="1.58" height="5.28"/><rect class="cls-1" x="106.59" y="368" width="5.28" height="1.58" transform="translate(-310.07 154.11) rotate(-72.07)"/><rect class="cls-1" x="87.85" y="358.47" width="5.28" height="1.58" transform="translate(-288.33 16.7) rotate(-54.08)"/><rect class="cls-1" x="72.97" y="343.62" width="5.28" height="1.59" transform="translate(-223.06 -94.54) rotate(-36.06)"/><rect class="cls-1" x="63.4" y="324.91" width="5.28" height="1.58" transform="translate(-132.58 -168.5) rotate(-18.07)"/><rect class="cls-1" x="60.08" y="304.15" width="5.28" height="1.58" transform="translate(-35.29 -204.96) rotate(-0.09)"/><rect class="cls-1" x="65.19" y="281.53" width="1.58" height="5.28" transform="matrix(0.31, -0.95, 0.95, 0.31, -259.5, 54.49)"/><rect class="cls-1" x="74.7" y="262.78" width="1.58" height="5.28" transform="matrix(0.59, -0.81, 0.81, 0.59, -218.56, -34.15)"/><rect class="cls-1" x="89.54" y="247.9" width="1.58" height="5.28" transform="translate(-165.06 -103.73) rotate(-36.1)"/><rect class="cls-1" x="108.26" y="238.32" width="1.58" height="5.28" transform="translate(-104.27 -159.24) rotate(-18.1)"/><path class="cls-1" d="M125.91,249.26l-2.15-3.56a1.87,1.87,0,0,0-1-.94,2,2,0,0,0-.52-.09c-.08,0-.13,0-.13-.12s.09-.1.25-.1l1.9,0c.18,0,.88,0,1.34,0,.18,0,.25,0,.25.11s-.07.11-.19.11a1.06,1.06,0,0,0-.33.05.2.2,0,0,0-.15.2,1,1,0,0,0,.12.37c.54,1,1.1,1.91,1.59,2.76.36-.55,1.51-2.29,1.7-2.64a1.08,1.08,0,0,0,.14-.48c0-.08-.09-.18-.21-.22a1.46,1.46,0,0,0-.4,0c-.08,0-.15,0-.15-.11s.08-.11.26-.11c.49,0,1,0,1.25,0s.76,0,1.23,0c.13,0,.22,0,.22.11s-.07.11-.2.11a1.78,1.78,0,0,0-.45.08c-.29.07-.54.42-.91,1l-2.05,3c.4.61,2.42,4,2.74,4.4a1.41,1.41,0,0,0,.72.53,1.66,1.66,0,0,0,.48.07c.08,0,.16,0,.16.1s-.1.13-.24.13c-.67,0-1.66,0-2.63,0-.32,0-.42,0-.42-.12s.06-.12.17-.14.12-.13,0-.29c-.69-1.23-1.4-2.47-2-3.4l-1.85,3a.88.88,0,0,0-.17.52.29.29,0,0,0,.23.22l.29,0c.08,0,.15,0,.15.11s-.09.12-.25.12l-1.4,0c-.24,0-.85,0-1.26,0-.13,0-.19,0-.19-.12s.07-.11.17-.11a2,2,0,0,0,.47-.06c.36-.1.6-.34,1-.94Z" transform="translate(-34.79 -205.06)"/><path class="cls-1" d="M131.45,248.07c0-1.9,0-2.25,0-2.65s-.15-.64-.43-.7a1.68,1.68,0,0,0-.45-.05c-.12,0-.2,0-.2-.12s.1-.1.3-.1l1.63,0,1.52,0c.17,0,.27,0,.27.1s-.08.12-.2.12a1.76,1.76,0,0,0-.38,0c-.34.06-.44.27-.46.71s0,.75,0,2.65v2.21c0,1.21,0,2.2.05,2.74,0,.33.13.56.5.61a4.48,4.48,0,0,0,.64.05c.14,0,.2,0,.2.1s-.1.13-.24.13c-.82,0-1.61,0-2,0s-1.07,0-1.57,0c-.17,0-.25,0-.25-.13s.05-.1.2-.1a1.87,1.87,0,0,0,.45-.05c.25,0,.32-.26.36-.63.06-.52.06-1.51.06-2.72Z" transform="translate(-34.79 -205.06)"/><path class="cls-1" d="M134.6,248.07c0-1.9,0-2.25,0-2.65s-.15-.64-.43-.7a1.64,1.64,0,0,0-.45-.05c-.12,0-.2,0-.2-.12s.1-.1.3-.1l1.63,0,1.53,0c.16,0,.26,0,.26.1s-.08.12-.2.12a1.76,1.76,0,0,0-.38,0c-.33.06-.43.27-.46.71s0,.75,0,2.65v2.21c0,1.21,0,2.2.05,2.74,0,.33.12.56.5.61a4.34,4.34,0,0,0,.63.05c.14,0,.2,0,.2.1s-.1.13-.23.13c-.83,0-1.62,0-2,0s-1.07,0-1.57,0c-.16,0-.25,0-.25-.13s.05-.1.2-.1a1.75,1.75,0,0,0,.45-.05c.25,0,.32-.26.36-.63.06-.52.06-1.51.06-2.72Z" transform="translate(-34.79 -205.06)"/><path class="cls-1" d="M99,259.29l-3.65-2a1.73,1.73,0,0,0-1.87-.1.12.12,0,0,1-.17-.05c0-.06,0-.13.17-.21l1.67-.92c.15-.09.74-.47,1.14-.7.15-.09.23-.1.27,0s0,.14-.11.19a1,1,0,0,0-.26.22.19.19,0,0,0,0,.24.85.85,0,0,0,.29.26c1,.59,1.91,1.1,2.75,1.6,0-.66.17-2.74.16-3.14a1,1,0,0,0-.12-.48.27.27,0,0,0-.3-.09,1.5,1.5,0,0,0-.36.17c-.07,0-.15.05-.19,0s0-.14.17-.22c.42-.25.9-.48,1.1-.6s.65-.41,1-.64c.12-.07.21-.08.25,0s0,.14-.12.2a1.67,1.67,0,0,0-.35.29c-.21.21-.25.64-.3,1.3l-.3,3.58c.65.34,4.1,2.26,4.57,2.45a1.31,1.31,0,0,0,.89.09,1.77,1.77,0,0,0,.45-.17c.08,0,.15-.06.19,0s0,.16-.14.23c-.59.34-1.44.83-2.29,1.29-.29.15-.39.18-.43.11s0-.13.08-.21,0-.16-.12-.26c-1.21-.72-2.45-1.44-3.41-2l-.11,3.52a.93.93,0,0,0,.11.54.27.27,0,0,0,.31.06,1.19,1.19,0,0,0,.26-.12.14.14,0,0,1,.19,0c0,.08,0,.14-.16.23s-1,.51-1.23.66-.72.46-1.08.67c-.11.06-.18.06-.22,0s0-.13.1-.18a2,2,0,0,0,.37-.29c.26-.26.35-.59.42-1.32Z" transform="translate(-34.79 -205.06)"/><path class="cls-1" d="M103.24,255.49c-.95-1.65-1.12-2-1.35-2.29s-.45-.48-.71-.39a1.4,1.4,0,0,0-.42.18c-.11.06-.19.08-.24,0s0-.14.21-.24c.42-.23,1.12-.59,1.43-.78s.89-.55,1.3-.79c.15-.08.24-.11.28,0s0,.15-.11.21a1.43,1.43,0,0,0-.3.22c-.27.23-.25.46,0,.85s.35.66,1.31,2.31l1.1,1.91c.6,1.05,1.1,1.9,1.41,2.35.2.27.39.42.74.28.16-.07.42-.19.58-.28s.19-.07.22,0,0,.15-.14.22c-.72.42-1.42.78-1.71.95s-.91.57-1.35.82c-.14.08-.23.09-.28,0s0-.11.13-.18a2.08,2.08,0,0,0,.36-.27c.19-.17.15-.39,0-.72-.21-.49-.7-1.35-1.31-2.4Z" transform="translate(-34.79 -205.06)"/><path class="cls-1" d="M81.67,277.38l-4.17.08a1.74,1.74,0,0,0-1.67.84.11.11,0,0,1-.17.05c-.06,0,0-.13,0-.27s.69-1.12,1-1.63c.09-.15.41-.78.64-1.18.09-.15.15-.2.22-.16s.06.12,0,.22a1.66,1.66,0,0,0-.12.32.2.2,0,0,0,.1.23.83.83,0,0,0,.37.07c1.14,0,2.21,0,3.19,0-.29-.59-1.22-2.46-1.43-2.79a1,1,0,0,0-.35-.36.26.26,0,0,0-.3.07,1.65,1.65,0,0,0-.23.33c0,.06-.1.12-.17.07s-.06-.13,0-.28c.25-.42.54-.86.66-1.07s.35-.68.58-1.08c.07-.12.15-.17.21-.14s.06.13,0,.23a1.76,1.76,0,0,0-.16.43c-.08.29.1.68.39,1.28l1.53,3.25c.73,0,4.68-.1,5.18-.17a1.29,1.29,0,0,0,.82-.36,1.55,1.55,0,0,0,.3-.38c0-.07.11-.13.17-.09s.06.15,0,.27c-.34.59-.83,1.44-1.34,2.26-.17.28-.24.35-.32.31s-.06-.11,0-.22,0-.16-.24-.17c-1.4,0-2.83,0-3.93,0l1.66,3.1a1,1,0,0,0,.37.42.29.29,0,0,0,.3-.1,1.66,1.66,0,0,0,.17-.24c0-.06.11-.11.17-.07s.06.13,0,.27-.57.92-.73,1.19-.39.76-.6,1.12c-.06.11-.12.14-.19.1s-.06-.12,0-.2a2.27,2.27,0,0,0,.18-.44,1.94,1.94,0,0,0-.3-1.35Z" transform="translate(-34.79 -205.06)"/><path class="cls-1" d="M73.08,309.17c-1.9,0-2.25,0-2.65,0s-.64.15-.7.42a1.68,1.68,0,0,0,0,.45c0,.13,0,.2-.13.2s-.1-.1-.1-.3c0-.47,0-1.26,0-1.62s0-1.06,0-1.53c0-.16,0-.26.1-.26s.13.07.13.2a2.62,2.62,0,0,0,0,.37c.07.34.28.44.72.46s.75,0,2.65,0h2.2c1.21,0,2.2,0,2.74-.05.34,0,.56-.13.61-.5a4.48,4.48,0,0,0,.05-.64c0-.14,0-.2.1-.2s.13.1.13.24c0,.82,0,1.61,0,1.95s0,1.08,0,1.58c0,.16,0,.25-.13.25s-.1-.05-.1-.2a1.75,1.75,0,0,0-.05-.45c0-.25-.26-.33-.62-.37-.53-.06-1.52-.06-2.73-.06Z" transform="translate(-34.79 -205.06)"/><path class="cls-1" d="M74.27,303.65l-3.57,2.16a1.89,1.89,0,0,0-.94,1,2.06,2.06,0,0,0-.08.53.12.12,0,0,1-.13.13c-.07,0-.1-.09-.1-.25s0-1.32,0-1.91c0-.17,0-.87,0-1.34,0-.17,0-.25.11-.25s.12.08.12.19a1.08,1.08,0,0,0,0,.34.2.2,0,0,0,.2.15,1.06,1.06,0,0,0,.36-.12c1-.54,1.91-1.11,2.76-1.59-.55-.37-2.29-1.52-2.64-1.71a1,1,0,0,0-.47-.13.27.27,0,0,0-.23.21,1.89,1.89,0,0,0,0,.4c0,.08,0,.15-.12.15s-.11-.09-.11-.26c0-.49,0-1,0-1.25s0-.77,0-1.23c0-.14,0-.23.11-.23s.12.08.12.21a1.71,1.71,0,0,0,.07.45c.08.28.43.53,1,.91l3,2.05c.61-.4,4-2.43,4.4-2.74a1.31,1.31,0,0,0,.53-.72,1.75,1.75,0,0,0,.07-.48c0-.09,0-.16.1-.16s.13.1.13.23c0,.68,0,1.67,0,2.63,0,.33,0,.43-.12.43s-.11-.07-.14-.18-.12-.11-.29,0c-1.22.69-2.46,1.4-3.4,2l3,1.86a1,1,0,0,0,.53.17c.11,0,.18-.12.21-.24a2.16,2.16,0,0,0,0-.28c0-.08,0-.15.12-.15s.11.08.11.25,0,1.08,0,1.4,0,.85,0,1.26c0,.13,0,.19-.11.19s-.12-.08-.12-.18a2,2,0,0,0-.06-.46c-.1-.36-.34-.6-.94-1Z" transform="translate(-34.79 -205.06)"/><path class="cls-1" d="M82.71,340.18c-.45.59-.46.84-.34,1.3a1.85,1.85,0,0,0,.2.44c.05.1,0,.15,0,.19s-.16-.06-.26-.23c-.33-.57-.65-1.21-.87-1.59s-.49-.77-.8-1.31c-.08-.13-.13-.26,0-.3s.14,0,.19.1a1,1,0,0,0,.32.38.33.33,0,0,0,.29,0,3.84,3.84,0,0,0,.69-.73l3.89-4.76c-1.46.22-5.83.84-6.7,1a1.75,1.75,0,0,0-.45.13.25.25,0,0,0-.13.26,1.63,1.63,0,0,0,.2.47c0,.1.09.19,0,.23s-.17,0-.29-.24c-.31-.54-.54-1-.62-1.15s-.43-.68-.62-1c-.08-.15-.11-.24,0-.29s.14,0,.2.12a1.08,1.08,0,0,0,.44.45c.18.09.45.15,1.32,0,1.26-.17,2-.21,3.68-.4l4.14-.46c.79-.09,1-.12,1.09,0s0,.29-.42.79Z" transform="translate(-34.79 -205.06)"/><path class="cls-1" d="M80.32,331.22c-1.65.95-1.95,1.13-2.29,1.35s-.48.45-.39.72a1.47,1.47,0,0,0,.18.41c.06.11.08.19,0,.24s-.14,0-.24-.21c-.23-.41-.6-1.12-.78-1.43s-.55-.89-.79-1.3c-.08-.14-.11-.24,0-.28s.15,0,.21.11a1.79,1.79,0,0,0,.22.31c.22.26.46.24.85,0s.66-.35,2.31-1.3l1.91-1.1c1-.61,1.9-1.11,2.34-1.42.28-.2.43-.39.29-.74-.07-.16-.19-.41-.28-.58s-.07-.19,0-.22.15,0,.22.14c.42.72.78,1.42.95,1.71s.57.92.82,1.35c.08.14.09.24,0,.28s-.11,0-.18-.12a2.23,2.23,0,0,0-.27-.37c-.17-.19-.39-.15-.72,0-.49.21-1.35.7-2.4,1.31Z" transform="translate(-34.79 -205.06)"/><path class="cls-1" d="M78.86,328.71c-1.64,1-2,1.12-2.28,1.35s-.48.44-.39.71a1.4,1.4,0,0,0,.18.42c.06.11.08.18,0,.23s-.14,0-.24-.21c-.23-.41-.6-1.11-.78-1.42s-.56-.89-.79-1.31c-.08-.14-.11-.24,0-.27s.15,0,.21.11a1.43,1.43,0,0,0,.22.3c.22.26.46.24.85.05s.66-.36,2.31-1.31l1.91-1.1c1-.6,1.9-1.1,2.34-1.41.28-.2.43-.39.28-.74a5,5,0,0,0-.27-.58c-.07-.12-.07-.19,0-.22s.15,0,.22.14c.42.72.78,1.42,1,1.71s.57.91.82,1.35c.08.14.09.23,0,.28s-.11,0-.18-.13a2.08,2.08,0,0,0-.27-.36c-.17-.19-.39-.15-.73,0s-1.34.7-2.39,1.31Z" transform="translate(-34.79 -205.06)"/><path class="cls-1" d="M77.41,326.19c-1.64.95-2,1.13-2.28,1.35s-.48.45-.39.72a1.4,1.4,0,0,0,.18.42c.06.1.08.18,0,.23s-.14,0-.24-.21c-.24-.41-.6-1.11-.78-1.43s-.56-.89-.79-1.3c-.09-.14-.11-.24,0-.28s.15,0,.21.11a1.79,1.79,0,0,0,.22.31c.22.26.46.24.85,0s.66-.35,2.31-1.3l1.91-1.1c1-.61,1.9-1.1,2.34-1.41.28-.21.43-.39.28-.74a4.35,4.35,0,0,0-.27-.58c-.07-.12-.07-.19,0-.22s.16,0,.23.14c.41.71.78,1.41,1,1.71s.57.91.82,1.34c.08.14.09.24,0,.28s-.11,0-.18-.12a2.08,2.08,0,0,0-.27-.36c-.17-.2-.39-.16-.73,0s-1.34.71-2.39,1.31Z" transform="translate(-34.79 -205.06)"/><path class="cls-1" d="M105.57,358.74c-.1.74,0,1,.34,1.3a2.12,2.12,0,0,0,.4.29c.1.06.11.11.08.17s-.18,0-.34-.06c-.58-.33-1.18-.72-1.55-.94s-.81-.43-1.36-.74c-.13-.07-.23-.16-.19-.24s.12-.06.22,0a.82.82,0,0,0,.47.16.3.3,0,0,0,.24-.16,4.1,4.1,0,0,0,.23-1c.3-1.9.68-4.24,1-6.06-1.15.92-4.63,3.64-5.3,4.2a1.75,1.75,0,0,0-.33.35.26.26,0,0,0,0,.29,1.73,1.73,0,0,0,.41.3c.09.06.17.12.13.19s-.16.06-.37-.06c-.54-.32-1-.61-1.11-.69s-.72-.37-1-.56c-.14-.08-.22-.15-.17-.23s.12-.06.23,0a1.07,1.07,0,0,0,.6.17c.2,0,.47-.1,1.16-.63,1-.77,1.64-1.19,3-2.18l3.35-2.48c.64-.46.81-.6,1-.51s.12.27,0,.9Z" transform="translate(-34.79 -205.06)"/><path class="cls-1" d="M99,352.19c-1,1.64-1.12,1.95-1.3,2.31s-.19.62,0,.81a1.59,1.59,0,0,0,.37.27c.11.07.16.12.11.21s-.14,0-.31-.06c-.41-.24-1.07-.67-1.39-.85s-.93-.49-1.34-.73c-.14-.08-.21-.15-.18-.22s.13-.07.24,0a2.16,2.16,0,0,0,.34.15c.33.11.52,0,.76-.39s.4-.63,1.35-2.28l1.1-1.91c.61-1.05,1.1-1.9,1.33-2.39.13-.32.17-.55-.13-.79l-.53-.36c-.12-.07-.15-.13-.12-.18s.15-.06.27,0c.71.41,1.37.83,1.67,1s.95.51,1.38.76c.14.08.2.16.16.23s-.1.06-.23,0a1.9,1.9,0,0,0-.41-.18c-.25-.08-.42.06-.63.36s-.81,1.28-1.42,2.33Z" transform="translate(-34.79 -205.06)"/><path class="cls-1" d="M96.5,350.73c-1,1.65-1.13,1.95-1.31,2.31s-.19.63,0,.82a1.68,1.68,0,0,0,.37.27c.1.06.16.12.11.21s-.14,0-.31-.06c-.41-.24-1.08-.67-1.39-.85s-.93-.49-1.34-.73c-.14-.08-.22-.15-.18-.22s.13-.07.24,0a1.34,1.34,0,0,0,.34.16c.32.11.52,0,.76-.39s.39-.63,1.34-2.28l1.11-1.91c.6-1.05,1.1-1.91,1.32-2.4.14-.31.18-.55-.12-.78a4.93,4.93,0,0,0-.53-.36c-.12-.07-.16-.13-.13-.19s.15-.05.27,0c.72.42,1.38.84,1.67,1s1,.51,1.39.76c.14.08.2.16.15.23s-.09.06-.22,0a1.54,1.54,0,0,0-.42-.18c-.24-.09-.41.06-.62.36s-.81,1.28-1.42,2.33Z" transform="translate(-34.79 -205.06)"/><path class="cls-1" d="M124.1,357.2c-.28-.68-.5-.82-.95-.95a1.85,1.85,0,0,0-.48-.05c-.12,0-.15,0-.15-.11s.13-.11.32-.11c.66,0,1.38,0,1.82,0s.91,0,1.53,0c.15,0,.29,0,.29.11s-.07.11-.19.11a.91.91,0,0,0-.48.09.29.29,0,0,0-.13.26,3.51,3.51,0,0,0,.29,1c.69,1.8,1.53,4,2.18,5.74.53-1.38,2.18-5.47,2.49-6.29a1.65,1.65,0,0,0,.11-.47.23.23,0,0,0-.16-.23,1.73,1.73,0,0,0-.5-.07c-.12,0-.22,0-.22-.1s.11-.12.35-.12c.63,0,1.15,0,1.32,0s.8,0,1.17,0c.16,0,.26,0,.26.11s-.07.11-.2.11a1.09,1.09,0,0,0-.61.15c-.16.12-.35.33-.69,1.13-.48,1.18-.82,1.85-1.5,3.39-.8,1.83-1.39,3.19-1.66,3.82s-.4.92-.58.92-.23-.17-.47-.76Z" transform="translate(-34.79 -205.06)"/><path class="cls-1" d="M133.06,359.61c0-1.91,0-2.26,0-2.66s-.15-.63-.43-.7a2.22,2.22,0,0,0-.45-.05c-.13,0-.2,0-.2-.12s.1-.1.3-.1c.47,0,1.26,0,1.63,0s1.05,0,1.52,0c.17,0,.27,0,.27.1s-.08.12-.21.12a2.76,2.76,0,0,0-.37,0c-.34.06-.44.28-.46.71s0,.75,0,2.66v2.2c0,1.21,0,2.2,0,2.74,0,.34.13.56.5.61a4.48,4.48,0,0,0,.64,0c.14,0,.2,0,.2.1s-.1.13-.24.13c-.82,0-1.61,0-1.95,0s-1.08,0-1.58,0c-.16,0-.25,0-.25-.13s.05-.1.2-.1a1.75,1.75,0,0,0,.45,0c.26-.05.33-.26.37-.62.06-.53.06-1.52.06-2.73Z" transform="translate(-34.79 -205.06)"/><path class="cls-1" d="M163.25,354.11c.6.45.85.47,1.3.35a2,2,0,0,0,.45-.2c.1-.06.15,0,.19,0s-.07.17-.23.26c-.57.33-1.21.66-1.59.88s-.77.49-1.31.8c-.13.07-.27.12-.31,0s0-.13.11-.19a.89.89,0,0,0,.38-.32.3.3,0,0,0,0-.29,3.84,3.84,0,0,0-.73-.69c-1.49-1.21-3.33-2.71-4.75-3.88.22,1.46.83,5.83,1,6.69a1.32,1.32,0,0,0,.13.46.22.22,0,0,0,.26.12,1.54,1.54,0,0,0,.46-.19c.1-.06.19-.1.24,0s0,.16-.24.28c-.54.32-1,.55-1.16.63s-.67.43-1,.62c-.14.08-.24.11-.28,0s0-.13.12-.2a1.1,1.1,0,0,0,.45-.43c.09-.18.14-.46,0-1.32-.16-1.26-.21-2-.39-3.69-.22-2-.39-3.46-.47-4.14s-.11-1,0-1.09.29,0,.79.43Z" transform="translate(-34.79 -205.06)"/><path class="cls-1" d="M181.83,328.49c1.65,1,1.95,1.13,2.31,1.31s.63.19.82,0a1.61,1.61,0,0,0,.27-.36c.06-.11.12-.16.21-.11s0,.13-.06.31c-.24.41-.67,1.07-.85,1.39s-.49.92-.73,1.34c-.08.14-.15.21-.22.17s-.07-.12,0-.23a3,3,0,0,0,.16-.35c.11-.32,0-.51-.39-.75s-.64-.4-2.28-1.35l-1.91-1.1c-1.05-.61-1.91-1.1-2.4-1.33-.31-.14-.55-.17-.78.13a4.1,4.1,0,0,0-.36.53c-.07.11-.13.15-.19.12s-.06-.15,0-.27c.42-.71.84-1.38,1-1.67s.51-.95.76-1.39c.08-.14.15-.19.23-.15s.06.09,0,.22a1.69,1.69,0,0,0-.18.42c-.09.24.06.41.36.63s1.27.81,2.33,1.41Z" transform="translate(-34.79 -205.06)"/><path class="cls-1" d="M182.29,332.51c.74.1,1,0,1.3-.35a2.11,2.11,0,0,0,.28-.39c.06-.1.11-.11.18-.08s0,.18-.07.34c-.33.58-.72,1.17-.94,1.55s-.42.81-.74,1.35c-.07.13-.16.24-.24.2s-.06-.12,0-.22a.93.93,0,0,0,.17-.47.32.32,0,0,0-.17-.24,3.65,3.65,0,0,0-1-.23c-1.9-.3-4.24-.69-6.06-1,.93,1.16,3.64,4.63,4.21,5.31a1.72,1.72,0,0,0,.34.33.24.24,0,0,0,.29,0,1.5,1.5,0,0,0,.3-.4c.06-.1.12-.18.2-.13s0,.16-.07.36c-.31.55-.61,1-.69,1.12s-.37.71-.55,1c-.09.14-.16.21-.23.17s-.06-.12,0-.23a1.15,1.15,0,0,0,.18-.6c0-.2-.11-.47-.64-1.16-.77-1-1.19-1.64-2.18-3l-2.47-3.35c-.47-.64-.61-.81-.52-1s.27-.12.9,0Z" transform="translate(-34.79 -205.06)"/><path class="cls-1" d="M186.9,301.62c1.9,0,2.25,0,2.65,0s.64-.15.7-.43a1.64,1.64,0,0,0,.05-.45c0-.12,0-.2.12-.2s.1.1.1.3c0,.48,0,1.27,0,1.63s0,1.05,0,1.53c0,.16,0,.26-.1.26s-.12-.08-.12-.2a1.76,1.76,0,0,0,0-.38c-.06-.34-.27-.44-.71-.46s-.75,0-2.65,0h-2.21c-1.21,0-2.2,0-2.74.05-.33,0-.56.13-.61.51,0,.17-.05.45-.05.63s0,.2-.1.2-.12-.1-.12-.23c0-.83,0-1.62,0-2s0-1.07,0-1.57c0-.17,0-.25.12-.25s.1.05.1.2a2.35,2.35,0,0,0,.05.45c0,.25.26.32.63.36.52.06,1.51.06,2.72.06Z" transform="translate(-34.79 -205.06)"/><path class="cls-1" d="M186.9,304.52c1.9,0,2.25,0,2.65,0s.64-.15.7-.43a1.64,1.64,0,0,0,.05-.45c0-.12,0-.2.12-.2s.1.1.1.3c0,.48,0,1.27,0,1.63s0,1,0,1.53c0,.16,0,.26-.1.26s-.12-.08-.12-.2a1.76,1.76,0,0,0,0-.38c-.06-.33-.27-.43-.71-.46s-.75,0-2.65,0h-2.21c-1.21,0-2.2,0-2.74.05-.33,0-.56.12-.61.5,0,.17-.05.45-.05.63s0,.21-.1.21-.12-.1-.12-.24c0-.83,0-1.62,0-2s0-1.08,0-1.58c0-.16,0-.25.12-.25s.1.05.1.2a2.35,2.35,0,0,0,.05.45c0,.25.26.32.63.36.52.06,1.51.06,2.72.06Z" transform="translate(-34.79 -205.06)"/><path class="cls-1" d="M186.9,307.43c1.9,0,2.25,0,2.65,0s.64-.15.7-.42a1.68,1.68,0,0,0,.05-.45c0-.13,0-.2.12-.2s.1.1.1.3c0,.47,0,1.26,0,1.62s0,1.05,0,1.53c0,.16,0,.26-.1.26s-.12-.07-.12-.2a1.73,1.73,0,0,0,0-.37c-.06-.34-.27-.44-.71-.47s-.75,0-2.65,0h-2.21c-1.21,0-2.2,0-2.74,0-.33,0-.56.12-.61.5a6.39,6.39,0,0,0-.05.64c0,.13,0,.2-.1.2s-.12-.1-.12-.24c0-.83,0-1.61,0-1.95s0-1.08,0-1.58c0-.16,0-.25.12-.25s.1,0,.1.2a2.35,2.35,0,0,0,.05.45c0,.25.26.33.63.36a27.14,27.14,0,0,0,2.72.07Z" transform="translate(-34.79 -205.06)"/><path class="cls-1" d="M177.41,273c1.65-1,2-1.13,2.29-1.35s.48-.45.39-.72a2.13,2.13,0,0,0-.18-.41c-.06-.11-.08-.19,0-.24s.13,0,.23.21c.24.41.6,1.11.79,1.43s.55.89.79,1.3c.08.14.11.24.05.28s-.15,0-.21-.11-.13-.19-.22-.31-.46-.24-.85,0-.66.35-2.31,1.3l-1.91,1.1c-1.05.61-1.91,1.1-2.35,1.41-.27.21-.42.4-.28.75a5,5,0,0,0,.28.57c.07.12.07.19,0,.23s-.16,0-.23-.15c-.41-.71-.77-1.41-.94-1.71s-.57-.91-.82-1.34c-.08-.14-.09-.24,0-.28s.12,0,.19.12a2.09,2.09,0,0,0,.27.37c.17.19.39.15.72,0,.49-.21,1.34-.71,2.4-1.31Z" transform="translate(-34.79 -205.06)"/><path class="cls-1" d="M178.86,275.48c1.65-1,1.95-1.13,2.29-1.35s.48-.45.39-.72a1.47,1.47,0,0,0-.18-.41c-.06-.11-.08-.19,0-.24s.14,0,.24.21c.23.41.59,1.12.78,1.43s.55.89.79,1.3c.08.14.11.24,0,.28s-.15,0-.21-.11-.13-.19-.22-.31-.46-.24-.85,0-.66.35-2.31,1.3l-1.91,1.1c-1,.61-1.91,1.11-2.35,1.42-.27.2-.42.39-.28.74.07.16.19.41.28.58s.07.19,0,.22-.16,0-.22-.15c-.42-.71-.78-1.41-.95-1.7s-.57-.92-.82-1.35c-.08-.14-.09-.24,0-.28s.12,0,.19.12a2.23,2.23,0,0,0,.27.37c.17.19.39.15.72,0,.49-.21,1.35-.7,2.4-1.31Z" transform="translate(-34.79 -205.06)"/><path class="cls-1" d="M160.24,256.5c1-1.65,1.13-1.95,1.31-2.31s.19-.63,0-.82a2,2,0,0,0-.36-.27c-.11-.06-.16-.12-.11-.21s.13,0,.31.07c.41.23,1.07.66,1.39.84s.92.5,1.34.73c.14.08.21.16.17.22s-.12.07-.23,0l-.35-.16c-.32-.11-.51,0-.75.39s-.4.64-1.35,2.29l-1.1,1.9c-.61,1.05-1.1,1.91-1.33,2.4-.14.31-.17.55.13.78a4.8,4.8,0,0,0,.52.36c.12.07.16.14.13.19s-.15.06-.27,0c-.72-.41-1.38-.84-1.67-1s-.95-.5-1.39-.75c-.14-.09-.19-.16-.15-.24s.09-.06.22,0a3.08,3.08,0,0,0,.42.18c.24.08.41-.07.63-.36s.81-1.28,1.41-2.33Z" transform="translate(-34.79 -205.06)"/><path class="cls-1" d="M110.11,383.32a55.22,55.22,0,0,1-23.68-4.8,61.22,61.22,0,0,1-10.61-6.06,68,68,0,0,1-9.25-8A74.18,74.18,0,0,1,58.81,355a82.88,82.88,0,0,1-6.16-10.6A80.32,80.32,0,0,1,48.11,333a91.37,91.37,0,0,1-3-11.89,101.51,101.51,0,0,1-1.32-12.17c0-1,0-2.05-.07-3.07,0-.51,0-1,0-1.53l0-1.53c.07-2,.08-4.08.32-6.11a92.62,92.62,0,0,1,5.25-23.84A83,83,0,0,1,61.1,251.49c.58-.83,1.29-1.57,1.93-2.36s1.29-1.57,2-2.31l2.12-2.19c.36-.36.69-.74,1.07-1.08l1.13-1c.75-.68,1.49-1.37,2.26-2L74,238.61l1.2-.93,1.27-.85L79,235.15a72,72,0,0,0-17,17c-1.13,1.66-2.32,3.27-3.31,5-.52.86-1,1.71-1.55,2.58l-1.39,2.66L55,263.7c-.23.45-.42.91-.63,1.37l-1.24,2.73-.31.69-.27.7-.54,1.4c-.35.93-.73,1.86-1.07,2.8a94.49,94.49,0,0,0-4.81,23.45c-.2,2-.21,4-.27,6l0,1.5c0,.5,0,1,0,1.49,0,1,0,2,.09,3a99.06,99.06,0,0,0,1.33,11.91,90.84,90.84,0,0,0,2.83,11.63,83.89,83.89,0,0,0,4.38,11.14,80.77,80.77,0,0,0,5.88,10.42,78.29,78.29,0,0,0,7.43,9.38,69.69,69.69,0,0,0,8.87,8,61.54,61.54,0,0,0,10.23,6.25,56.45,56.45,0,0,0,11.29,4.1,54.33,54.33,0,0,0,5.93,1.12c1,.11,2,.26,3,.34Z" transform="translate(-34.79 -205.06)"/><path class="cls-1" d="M79.39,234.64s2.58-8.5,12.69-4.91C92.08,229.73,86.58,239.84,79.39,234.64Z" transform="translate(-34.79 -205.06)"/><path class="cls-1" d="M70.61,243.92s4.56-7.19,13.33-.13C83.94,243.79,76.19,251.46,70.61,243.92Z" transform="translate(-34.79 -205.06)"/><path class="cls-1" d="M72,237.23s-3.32-8.11,5.81-14.46C77.81,222.77,80.08,234.55,72,237.23Z" transform="translate(-34.79 -205.06)"/><path class="cls-1" d="M62.07,247.48s-4.66-7.09,3.17-15.62C65.24,231.86,69.5,242.8,62.07,247.48Z" transform="translate(-34.79 -205.06)"/><path class="cls-1" d="M47.37,272.93s-6.16-5.14-.74-16.05C46.63,256.88,53.35,265.85,47.37,272.93Z" transform="translate(-34.79 -205.06)"/><path class="cls-1" d="M53.48,260s-5.52-6.12,1.1-16C54.58,244,60.21,254,53.48,260Z" transform="translate(-34.79 -205.06)"/><path class="cls-1" d="M43.85,287.87s-7-3.17-4-15.34C39.88,272.53,48.21,279.24,43.85,287.87Z" transform="translate(-34.79 -205.06)"/><path class="cls-1" d="M42.62,303.59s-7.41-1.41-6.44-14.08C36.18,289.51,45.46,294.08,42.62,303.59Z" transform="translate(-34.79 -205.06)"/><path class="cls-1" d="M43.51,318.94s-7.49.47-8.72-12.16C34.79,306.78,44.66,308.92,43.51,318.94Z" transform="translate(-34.79 -205.06)"/><path class="cls-1" d="M46.48,333.75s-7.3,2.08-10.39-10.08C36.09,323.67,46.12,323.64,46.48,333.75Z" transform="translate(-34.79 -205.06)"/><path class="cls-1" d="M52.94,348.5s-6.93,3.45-11.57-8C41.37,340.53,51.27,338.6,52.94,348.5Z" transform="translate(-34.79 -205.06)"/><path class="cls-1" d="M61.32,361s-6.23,5-12.65-5.06C48.67,355.9,58.05,351.64,61.32,361Z" transform="translate(-34.79 -205.06)"/><path class="cls-1" d="M71.52,371.25s-5.46,6.19-13.17-2.49C58.35,368.76,67,362.71,71.52,371.25Z" transform="translate(-34.79 -205.06)"/><path class="cls-1" d="M82,378.3s-4.52,7.22-13.33.23C68.64,378.53,76.35,370.8,82,378.3Z" transform="translate(-34.79 -205.06)"/><path class="cls-1" d="M93.78,382.74s-3,8.27-12.93,3.88C80.85,386.62,86.9,377,93.78,382.74Z" transform="translate(-34.79 -205.06)"/><path class="cls-1" d="M62.24,254.7s3.54-8,13.13-2.7C75.37,252,68.75,261.07,62.24,254.7Z" transform="translate(-34.79 -205.06)"/><path class="cls-1" d="M53.67,268.94s1.95-8.73,12.28-6.22C66,262.72,61.2,273.36,53.67,268.94Z" transform="translate(-34.79 -205.06)"/><path class="cls-1" d="M49.07,285.89s-.48-9,10-10.66C59,275.23,57.39,287.16,49.07,285.89Z" transform="translate(-34.79 -205.06)"/><path class="cls-1" d="M46.56,302s-1.43-8.87,8.77-12.11C55.33,289.86,55,302,46.56,302Z" transform="translate(-34.79 -205.06)"/><path class="cls-1" d="M47.8,318.94s-2.92-8.32,6.5-14C54.3,304.91,56,316.83,47.8,318.94Z" transform="translate(-34.79 -205.06)"/><path class="cls-1" d="M52.05,335s-4.66-7.08,3.14-15.62C55.19,319.41,59.48,330.34,52.05,335Z" transform="translate(-34.79 -205.06)"/><path class="cls-1" d="M59.17,350.17s-5.77-5.77.42-16.07C59.59,334.1,65.64,343.74,59.17,350.17Z" transform="translate(-34.79 -205.06)"/><path class="cls-1" d="M68.7,362.55s-6.62-4.25-2.29-15.84C66.41,346.71,74,354.67,68.7,362.55Z" transform="translate(-34.79 -205.06)"/><path class="cls-1" d="M80.34,372.65s-7.24-2.35-5.16-14.82C75.18,357.83,84,363.56,80.34,372.65Z" transform="translate(-34.79 -205.06)"/><path class="cls-1" d="M94.24,379.25s-7.49.3-8.53-12.35C85.71,366.9,95.54,369.26,94.24,379.25Z" transform="translate(-34.79 -205.06)"/><path class="cls-1" d="M149.49,383.32l3-.17c1-.08,2-.23,3-.34a53.71,53.71,0,0,0,5.92-1.12,56.31,56.31,0,0,0,11.3-4.1A61.54,61.54,0,0,0,183,371.34a69.69,69.69,0,0,0,8.87-8,78.21,78.21,0,0,0,7.42-9.38,79.67,79.67,0,0,0,5.89-10.42,83.89,83.89,0,0,0,4.38-11.14,90.84,90.84,0,0,0,2.83-11.63,99.06,99.06,0,0,0,1.33-11.91c.05-1,.05-2,.08-3,0-.49,0-1,0-1.49l0-1.5c-.06-2-.07-4-.27-6a94.05,94.05,0,0,0-4.82-23.45c-.33-.94-.71-1.87-1.06-2.8l-.54-1.4-.27-.7-.31-.69-1.24-2.73c-.21-.46-.4-.92-.63-1.37l-.7-1.33-1.39-2.66c-.5-.87-1-1.72-1.55-2.58-1-1.75-2.19-3.36-3.31-5a72,72,0,0,0-17-17l2.52,1.68,1.26.85,1.2.93,2.39,1.88c.76.67,1.51,1.36,2.26,2l1.13,1c.38.34.71.72,1.07,1.08l2.12,2.19c.69.74,1.32,1.54,2,2.31s1.34,1.53,1.93,2.36a83.34,83.34,0,0,1,11.73,21.35,92.62,92.62,0,0,1,5.25,23.84c.24,2,.25,4.07.32,6.11l.05,1.53c0,.51,0,1,0,1.53,0,1,0,2-.08,3.07a99.48,99.48,0,0,1-1.31,12.17A91.37,91.37,0,0,1,211.5,333,81.53,81.53,0,0,1,207,344.36,82.88,82.88,0,0,1,200.8,355a74.18,74.18,0,0,1-7.76,9.47,68.56,68.56,0,0,1-9.25,8,61.22,61.22,0,0,1-10.61,6.06A55.23,55.23,0,0,1,149.49,383.32Z" transform="translate(-34.79 -205.06)"/><path class="cls-1" d="M180.22,234.64s-2.58-8.5-12.69-4.91C167.53,229.73,173,239.84,180.22,234.64Z" transform="translate(-34.79 -205.06)"/><path class="cls-1" d="M189,243.92s-4.56-7.19-13.33-.13C175.67,243.79,183.42,251.46,189,243.92Z" transform="translate(-34.79 -205.06)"/><path class="cls-1" d="M187.61,237.23s3.32-8.11-5.81-14.46C181.8,222.77,179.53,234.55,187.61,237.23Z" transform="translate(-34.79 -205.06)"/><path class="cls-1" d="M197.54,247.48s4.65-7.09-3.17-15.62C194.37,231.86,190.11,242.8,197.54,247.48Z" transform="translate(-34.79 -205.06)"/><path class="cls-1" d="M212.24,272.93s6.16-5.14.74-16.05C213,256.88,206.26,265.85,212.24,272.93Z" transform="translate(-34.79 -205.06)"/><path class="cls-1" d="M206.13,260s5.52-6.12-1.1-16C205,244,199.4,254,206.13,260Z" transform="translate(-34.79 -205.06)"/><path class="cls-1" d="M215.76,287.87s7-3.17,4-15.34C219.73,272.53,211.4,279.24,215.76,287.87Z" transform="translate(-34.79 -205.06)"/><path class="cls-1" d="M217,303.59s7.41-1.41,6.44-14.08C223.43,289.51,214.15,294.08,217,303.59Z" transform="translate(-34.79 -205.06)"/><path class="cls-1" d="M216.1,318.94s7.48.47,8.72-12.16C224.82,306.78,215,308.92,216.1,318.94Z" transform="translate(-34.79 -205.06)"/><path class="cls-1" d="M213.13,333.75s7.3,2.08,10.38-10.08C223.51,323.67,213.49,323.64,213.13,333.75Z" transform="translate(-34.79 -205.06)"/><path class="cls-1" d="M206.67,348.5s6.93,3.45,11.57-8C218.24,340.53,208.34,338.6,206.67,348.5Z" transform="translate(-34.79 -205.06)"/><path class="cls-1" d="M198.29,361s6.23,5,12.65-5.06C210.94,355.9,201.56,351.64,198.29,361Z" transform="translate(-34.79 -205.06)"/><path class="cls-1" d="M188.09,371.25s5.46,6.19,13.16-2.49C201.25,368.76,192.58,362.71,188.09,371.25Z" transform="translate(-34.79 -205.06)"/><path class="cls-1" d="M177.64,378.3s4.52,7.22,13.32.23C191,378.53,183.26,370.8,177.64,378.3Z" transform="translate(-34.79 -205.06)"/><path class="cls-1" d="M165.82,382.74s3,8.27,12.93,3.88C178.75,386.62,172.71,377,165.82,382.74Z" transform="translate(-34.79 -205.06)"/><path class="cls-1" d="M197.37,254.7s-3.54-8-13.14-2.7C184.23,252,190.86,261.07,197.37,254.7Z" transform="translate(-34.79 -205.06)"/><path class="cls-1" d="M205.94,268.94s-1.95-8.73-12.28-6.22C193.66,262.72,198.41,273.36,205.94,268.94Z" transform="translate(-34.79 -205.06)"/><path class="cls-1" d="M210.54,285.89s.48-9-10-10.66C200.57,275.23,202.22,287.16,210.54,285.89Z" transform="translate(-34.79 -205.06)"/><path class="cls-1" d="M213,302s1.43-8.87-8.76-12.11C204.28,289.86,204.66,302,213,302Z" transform="translate(-34.79 -205.06)"/><path class="cls-1" d="M211.8,318.94s2.93-8.32-6.49-14C205.31,304.91,203.61,316.83,211.8,318.94Z" transform="translate(-34.79 -205.06)"/><path class="cls-1" d="M207.55,335s4.67-7.08-3.13-15.62C204.42,319.41,200.13,330.34,207.55,335Z" transform="translate(-34.79 -205.06)"/><path class="cls-1" d="M200.44,350.17s5.77-5.77-.42-16.07C200,334.1,194,343.74,200.44,350.17Z" transform="translate(-34.79 -205.06)"/><path class="cls-1" d="M190.91,362.55s6.62-4.25,2.29-15.84C193.2,346.71,185.66,354.67,190.91,362.55Z" transform="translate(-34.79 -205.06)"/><path class="cls-1" d="M179.27,372.65s7.24-2.35,5.16-14.82C184.43,357.83,175.6,363.56,179.27,372.65Z" transform="translate(-34.79 -205.06)"/><path class="cls-1" d="M165.37,379.25s7.49.3,8.53-12.35C173.9,366.9,164.07,369.26,165.37,379.25Z" transform="translate(-34.79 -205.06)"/><rect class="cls-1" x="126.06" y="381.17" width="7.49" height="7.49" transform="translate(275.4 -184.1) rotate(45)"/><rect class="cls-1" x="114.63" y="380.4" width="5.83" height="5.83" transform="translate(270.68 -175.91) rotate(45)"/><rect class="cls-1" x="139.14" y="380.4" width="5.83" height="5.83" transform="translate(277.86 -193.24) rotate(45)"/><path class="cls-1" d="M132.65,232s5.94-2.89.71-10.69a3.31,3.31,0,0,0-2.76-1.37h-2.07a3.31,3.31,0,0,0-2.76,1.37c-5.23,7.8.71,10.69.71,10.69-.08.63-3.09,3-3.09,3h12.35S132.73,232.61,132.65,232Z" transform="translate(-34.79 -205.06)"/><path class="cls-1" d="M133.88,216.65c0,2-1.93,3.71-4.32,3.71s-4.31-1.66-4.31-3.71,1.93-3.7,4.31-3.7S133.88,214.61,133.88,216.65Z" transform="translate(-34.79 -205.06)"/><path class="cls-1" d="M142.13,224.41a1.6,1.6,0,0,0-.31-.33l-.07-.05-.05,0a1.75,1.75,0,0,0-1-.31,1.27,1.27,0,1,0,0,2.48,1.87,1.87,0,0,0,.89-.23,1.16,1.16,0,0,1-.32.46,3.09,3.09,0,0,1-2,.54,4.35,4.35,0,0,1-2.13-.54,2.36,2.36,0,0,1-1.21-1.42,3.34,3.34,0,0,1,.09-1.87,5.55,5.55,0,0,1,1-1.81c.12-.14.22-.28.34-.4l.41-.42a8.23,8.23,0,0,0,.8-1,8.58,8.58,0,0,0,.27-9.31,10.39,10.39,0,0,0-3.77-3.61,11.53,11.53,0,0,0-5.42-1.49,10.76,10.76,0,0,0-2.89.37,10.31,10.31,0,0,0-2.58,1.11,11.77,11.77,0,0,0-2.12,1.62,10.81,10.81,0,0,0-1.59,2,9,9,0,0,0-1,2.28,7.86,7.86,0,0,0-.3,2.41,8.64,8.64,0,0,0,2.32,5.62l.4.42a3.26,3.26,0,0,1,.34.4,5.58,5.58,0,0,1,1,1.81,3.24,3.24,0,0,1,.08,1.87,2.31,2.31,0,0,1-1.2,1.42,4.35,4.35,0,0,1-2.13.54,3.15,3.15,0,0,1-2-.54,1.14,1.14,0,0,1-.31-.46,1.8,1.8,0,0,0,.88.23,1.27,1.27,0,1,0,0-2.48,1.85,1.85,0,0,0-1,.28l-.1.07,0,0a1.51,1.51,0,0,0-.33.34,2.17,2.17,0,0,0-.34,1.25,1.94,1.94,0,0,0,.53,1.24,2.83,2.83,0,0,0,1.26.74,5.78,5.78,0,0,0,1.42.24,5.7,5.7,0,0,0,2.81-.57l.16-.07.15-.09.31-.2a6.09,6.09,0,0,0,.55-.46c.16-.18.3-.37.44-.56a3.77,3.77,0,0,0,.29-.61,4.26,4.26,0,0,0,.06-2.52,7,7,0,0,0-1.06-2.26c-.14-.17-.25-.35-.4-.51l-.4-.45a8.81,8.81,0,0,1-.62-.85,7.14,7.14,0,0,1-1.13-3.88,6.72,6.72,0,0,1,.31-2,7.72,7.72,0,0,1,.86-1.87,9.08,9.08,0,0,1,1.33-1.65,10.29,10.29,0,0,1,1.75-1.32,8,8,0,0,1,4.25-1.13,9.2,9.2,0,0,1,4.31,1.16,8.55,8.55,0,0,1,3.1,2.92,7.23,7.23,0,0,1,0,7.76,6.61,6.61,0,0,1-.62.85l-.4.45c-.15.16-.26.34-.4.51a7,7,0,0,0-1.06,2.26,4.26,4.26,0,0,0,.06,2.52,3.83,3.83,0,0,0,.3.61,5.57,5.57,0,0,0,.43.56c.19.15.35.33.55.46l.31.19.15.1.17.07a5.64,5.64,0,0,0,2.8.57,6.21,6.21,0,0,0,1.41-.24,2.91,2.91,0,0,0,1.27-.74,2,2,0,0,0,.52-1.24A2.18,2.18,0,0,0,142.13,224.41Z" transform="translate(-34.79 -205.06)"/><path class="cls-1" d="M110.73,237.67a2.59,2.59,0,0,1-.25-2.12c.35-1.22.33-3.43-2.9-4a3.84,3.84,0,0,1-1.08-.37,1.07,1.07,0,0,0,.16-.36,1.24,1.24,0,1,0-1.54.88,3.88,3.88,0,0,1-.62.88c-2.23,2.4-.91,4.17.1,4.94a2.58,2.58,0,0,1,1.08,1.83l2.57-.76h0Z" transform="translate(-34.79 -205.06)"/><path class="cls-1" d="M149.49,237.67a2.59,2.59,0,0,0,.25-2.12c-.34-1.22-.33-3.43,2.9-4a3.73,3.73,0,0,0,1.08-.37,1.07,1.07,0,0,1-.16-.36,1.24,1.24,0,1,1,1.54.88,3.88,3.88,0,0,0,.62.88c2.23,2.4.91,4.17-.1,4.94a2.58,2.58,0,0,0-1.08,1.83L152,238.6h0Z" transform="translate(-34.79 -205.06)"/><path class="cls-1" d="M104,311.87a2.43,2.43,0,0,0-.09.65.18.18,0,0,0,0,.12l.11.14.2.27,0,0v0l-.35.58h0l.19,1.14-.24-1.14h0l.33-.6v0l-.21-.25-.11-.13a.33.33,0,0,1-.08-.18,2.61,2.61,0,0,1,.06-.69Z" transform="translate(-34.79 -205.06)"/><path class="cls-1" d="M125.22,320.57l-.06,0-.14,0C125,320.65,125.31,320.57,125.22,320.57Z" transform="translate(-34.79 -205.06)"/><path class="cls-1" d="M136.57,314.2h-.21a2.58,2.58,0,0,0-.4,0,6.83,6.83,0,0,0-1.54.46l-.1.06,0,.05h0l-.17.05a2.32,2.32,0,0,1-.38.05,1.6,1.6,0,0,1-.38,0l-.07,0s-.08,0-.1,0l-.19-.07c-.51-.17-1-.31-1.53-.46h0l-1.5-.23a2.75,2.75,0,0,1,.09-.5c.05-.24.24-.42.3-.68a.45.45,0,0,0,0-.2.21.21,0,0,0-.06-.1l-.05-.06a2,2,0,0,1-.15-.33c-.09-.23-.18-.46-.25-.7l.2-2.69-.23,2.69h0c.07.24.14.47.23.71a2.44,2.44,0,0,0,.14.34.29.29,0,0,0,.07.08.09.09,0,0,1,0,.07.23.23,0,0,1,0,.16c-.05.23-.25.41-.32.67a3.06,3.06,0,0,0-.1.51h0l0,0c-.33.24-.67.49-1,.7l-.13.07,0,0-.11.05a3,3,0,0,0-.26.22c-.16.15-.3.3-.45.46l-.84.92-.1.1,0,0-.06.07,0,.1a1.65,1.65,0,0,0-.09.33,4.76,4.76,0,0,0-.11.64h0v0l0,.72v0a4.54,4.54,0,0,1,.09.51,2,2,0,0,1,0,.24c0,.08,0,.15,0,.13l-.17.11-.22.12-.48.22-.5.19-.24.08-.07,0h-.11l-.09,0-.19.07-.11-.06-4.81-2.72a1.37,1.37,0,0,1,0-.29c0-.13.1-.25.13-.39a1.54,1.54,0,0,1,.37.09c.13,0,.24.17.4.22a.22.22,0,0,0,.14,0l.07,0s0,0,0,0a1.29,1.29,0,0,1,.21-.07,3.74,3.74,0,0,1,.45-.12l.53.21-.53-.24h0l-.45.1a.88.88,0,0,0-.23.07l-.06,0,0,0-.1,0c-.14,0-.24-.18-.39-.24a1.94,1.94,0,0,0-.39-.12.17.17,0,0,0,0-.07.15.15,0,0,0,0-.06l0,0a1.28,1.28,0,0,1-.11-.2c-.07-.14-.14-.28-.2-.42l.1-.56-.13.56h0l.18.43a2.12,2.12,0,0,0,.11.21l0,0,0,0v.15a3.34,3.34,0,0,0-.16.38,1.13,1.13,0,0,0,0,.25l-1.2-.67c-.24-.38-.49-.74-.76-1.1a5.93,5.93,0,0,0-.46-.56,2.7,2.7,0,0,0-.3-.27,1.06,1.06,0,0,0-.22-.13h0s0,0,0,0a1.74,1.74,0,0,1-.31-.4l-.68-1.35.48-2v0a5.42,5.42,0,0,0-.21-1,4,4,0,0,0-.41-.89,18,18,0,0,1-.76-1.74c.08-.26.17-.51.26-.76a4.39,4.39,0,0,1,.33-.73l.06-.07h.08l.19-.08.36-.21.68-.47h0a4.45,4.45,0,0,0,.48-1,1,1,0,0,1,.32-.52,2.34,2.34,0,0,1,.6-.33,2.27,2.27,0,0,0-.54.27.84.84,0,0,0-.37.46,4.45,4.45,0,0,1-.53,1.07l-.68.45-.35.2-.18.07h0s-.07,0-.08,0a.28.28,0,0,0-.07.09,4.34,4.34,0,0,0-.35.72c-.08.2-.16.4-.23.6l-.07.22v0l0,0a2.34,2.34,0,0,0-.45-.07,1.14,1.14,0,0,0-.26,0,.57.57,0,0,0-.22.11,2.3,2.3,0,0,1-.45.12l-.47.05-1-.46a2.15,2.15,0,0,0-1.09-.18.67.67,0,0,0-.46.31,2.07,2.07,0,0,0-.23.5,2.6,2.6,0,0,1-.1.25c0,.1-.13.1-.21.14l-.52.2h0l-.38.34.39-.34.51-.18c.08,0,.2,0,.23-.15s.07-.17.11-.25c.12-.33.29-.72.67-.77a2.13,2.13,0,0,1,1.05.19l1,.48h0a3.91,3.91,0,0,0,.48-.05,1.69,1.69,0,0,0,.48-.12.63.63,0,0,1,.43-.1,3.4,3.4,0,0,1,.46.07l0-.06c.21.57.43,1.14.7,1.7a3.34,3.34,0,0,1,.38.87,5.86,5.86,0,0,1,.18.91,3.5,3.5,0,0,1-.65-.08c-.24-.05-.43-.24-.69-.29a.45.45,0,0,0-.2,0,.16.16,0,0,0-.09.07l-.06.05-.33.16-.69.27-.89-.24.88.26h0c.24-.07.47-.15.71-.24a2.6,2.6,0,0,0,.34-.16.24.24,0,0,0,.08-.06.09.09,0,0,1,.06,0,.29.29,0,0,1,.16,0c.24.05.42.24.68.31a3.21,3.21,0,0,0,.62.1,5.26,5.26,0,0,1-.54.79c-.12,0-.8.47-1.24.74l-.27.05a1.17,1.17,0,0,0-.25.08l0,0h0s0,0,0,0h0a2.52,2.52,0,0,1-.34-.16,7.63,7.63,0,0,1-.68-.48h0a8.38,8.38,0,0,1-1.56-1c-.05-.06,0,0-.1-.18a1.8,1.8,0,0,0-.18-.2,3.37,3.37,0,0,0-.37-.29,6.43,6.43,0,0,0-.83-.52,1.51,1.51,0,0,0-.22-.11l-.12-.05h-.16l-.47,0-.94.07-1.89.14h0l0,0-1.42,1.72-1.26-.58-1.32-.57h0a20.36,20.36,0,0,1-2.06-.27L97.17,310h0l-2.11.09,2.11-.06,2,.35a20.67,20.67,0,0,0,2,.3l1.31.59,1.3.62.05,0,0-.05,1.46-1.71,1.84-.11.94-.06.47,0a.92.92,0,0,1,.34.13,6.52,6.52,0,0,1,.78.51c.13.1.26.19.38.3l.13.15a1,1,0,0,0,.13.22,4.09,4.09,0,0,0,.79.58c.27.17.54.32.82.47a7.17,7.17,0,0,0,.69.5,2.74,2.74,0,0,0,.42.21l.15,0s.22-.08.18-.05l.16,0a9.73,9.73,0,0,1,1.1-.13c.15.34.29.69.46,1s.21.42.33.63a2.86,2.86,0,0,0,.47.63l.1.09.13.06.08.05c.06.06.14.13.21.21s.28.34.41.52c.26.36.5.73.73,1.11l.07.1.07.05,2.62,1.54,0,0s1.68,1.19,1.81,1.23.25.42.42.42.3.29.3.29-.43.05-.47.17-.21.51-.21.51l-.5.12-.8.13,1,0s.5-.12.54-.29a.69.69,0,0,1,.22-.3l.42-.12a5.66,5.66,0,0,1-.09,1.52c-.17.52-.35,1-.53,1.55l-3.1,1h0l-1.11.34-.2.06-.08.18a6.1,6.1,0,0,1-.77,1.36,2.41,2.41,0,0,1-1.36,1,2,2,0,0,0-1,.6,3.28,3.28,0,0,0-.58.9,6.63,6.63,0,0,0-.51,1.94l0,.2.14.15,2.54,3c.43.49.87,1,1.31,1.45l.34.36.09.09,0,.06a.85.85,0,0,1,.09.14,2.68,2.68,0,0,1,.25.77,16.31,16.31,0,0,1,.06,3.77c0,.17,0,.31,0,.52a1.62,1.62,0,0,0,.18.66,5.79,5.79,0,0,0,.58.9,13.45,13.45,0,0,0,1,1.13L119,345.73c-.57.46-1.16.94-1.74,1.36a3,3,0,0,1-.41.26,3,3,0,0,0-.55.42c-.29.28-.54.57-.79.86-.48.57-.92,1.14-1.36,1.73-.42.29-.81.59-1.21.9a8.26,8.26,0,0,0-1.19,1.12l0,0a.28.28,0,0,1-.07-.11.82.82,0,0,0-.21-.3,3.56,3.56,0,0,0-.45-.42l-.11-.09-.11.08a2.26,2.26,0,0,1-.61.37,1.43,1.43,0,0,1-.33,0l-.39-.08-.39-.09-.18,0a.56.56,0,0,1-.16-.07l-.35-.19a1.31,1.31,0,0,0-.21-.08h-.11l-.15,0,0-.14-.06.18,0,.13.13.05h.09a.71.71,0,0,1,.16.07l.33.2a.86.86,0,0,0,.19.11l.21,0,.38.1.38.1a1.77,1.77,0,0,0,.45.07,1.36,1.36,0,0,0,.42-.18l.22-.13a2.81,2.81,0,0,1,.29.31.53.53,0,0,1,.12.17s0,.06,0,.1l.05.09a1.47,1.47,0,0,0,.1.13l0,.05a.14.14,0,0,0,0,.06,1.19,1.19,0,0,0,0,.54,3.85,3.85,0,0,0,.27.81,12,12,0,0,0,.75,1.42l0,0,0,0,3.48,3.34,1.78,2.79.49,1.79,0,.1.1,0,3.31,1.16c.72,1.64,1.44,3.29,2.17,4.93q-.94-2.5-1.92-5l0-.12v0l0,0-3.22-1.27-.4-1.75v0l0,0-1.75-2.89v0l0,0L114,356.17l-1.09-1.41s-.17-.89.08-1.1.08-.76.08-.76a.89.89,0,0,1,.47-.46,4.87,4.87,0,0,0,1.19-1.46l.13-.19c.47-.62,1-1.23,1.48-1.81.18-.21.36-.4.54-.58a1.8,1.8,0,0,1,.34-.26,3.24,3.24,0,0,0,.53-.34c.64-.44,1.21-.91,1.8-1.39L121.3,345l.3-.25c.13,0,.27.11.41.15a5.48,5.48,0,0,0,1.3.3,1.21,1.21,0,0,0,.19,0h.12a1,1,0,0,1,.26.08,2.76,2.76,0,0,1,.44.25,7.94,7.94,0,0,1,1,.88l.07.08.08,0a2.62,2.62,0,0,0,.89-.61,1.11,1.11,0,0,0,.28-.48c0-.19.07-.32.19-.36a.77.77,0,0,1,.44,0l.26.07h.15l.14,0a3.33,3.33,0,0,1,1-.07h0l0,0,.88-1.4h0c0-.27.07-.55.12-.81a3.37,3.37,0,0,1,.24-.78c.05-.12.14-.26.27-.25l.41,0,.82,0-.82-.07-.41,0c-.16,0-.25.15-.31.26a3.25,3.25,0,0,0-.26.78c-.06.27-.1.54-.14.81l-.89,1.34a3.53,3.53,0,0,0-1,.05c-.13.07-.28,0-.45-.05a.93.93,0,0,0-.56-.06c-.24.07-.28.35-.32.48a.94.94,0,0,1-.24.39,2.19,2.19,0,0,1-.75.48,7.85,7.85,0,0,0-.91-.81A3,3,0,0,0,124,345a1.31,1.31,0,0,0-.35-.12h-.28a2,2,0,0,0,0-.26,1,1,0,0,0,0-.25.67.67,0,0,0-.1-.24,1.56,1.56,0,0,1-.1-.45l0-.46.51-1a2.24,2.24,0,0,0,.23-1.08.66.66,0,0,0-.29-.47,2,2,0,0,0-.48-.26l-.25-.1c-.1,0-.09-.14-.13-.23l-.17-.52h0l-.33-.39.32.4.16.52c0,.08,0,.2.13.24l.26.11c.31.14.7.33.73.71a2.23,2.23,0,0,1-.24,1l-.53,1h0v0a3.87,3.87,0,0,0,0,.48,1.75,1.75,0,0,0,.09.49.56.56,0,0,1,.09.2.89.89,0,0,1,0,.23,2,2,0,0,1,0,.26,6.16,6.16,0,0,1-1.14-.29l-.89-.35a11.85,11.85,0,0,1-1.15-1.31,4.28,4.28,0,0,1-.47-.73.88.88,0,0,1-.09-.27c0-.12,0-.3,0-.45a17.32,17.32,0,0,0,0-4,1.16,1.16,0,0,0,0-.18,3.87,3.87,0,0,1,.27-.43h0a5.12,5.12,0,0,1,.3-.57,1.77,1.77,0,0,0,.19-.63,7.83,7.83,0,0,0,.12-1.29,1.41,1.41,0,0,1,.06-.61,1.49,1.49,0,0,1,.09-.3.12.12,0,0,1,0-.05s0-.06,0-.08l.08-.15c.19-.39.36-.78.54-1.17h0l.42-1.13a1.77,1.77,0,0,1,.33.08c.14.05.25.18.41.23a.32.32,0,0,0,.14,0,.09.09,0,0,0,.06,0l0,0,.22-.08.44-.12.54.21-.53-.24h0l-.46.1-.23.07-.05,0h0a.14.14,0,0,1-.09,0c-.14,0-.24-.19-.4-.25a1.39,1.39,0,0,0-.33-.1v-.06c0-.26-.08-.54-.1-.8s0-.23,0-.42a4,4,0,0,0-.11-.41l-.24-.79-.06-.19V328l0-.08,0-.05h.06a1,1,0,0,0,.25,0,.61.61,0,0,0,.23-.09,1.71,1.71,0,0,1,.46-.1c.15,0,.31,0,.46,0l1,.51a2.14,2.14,0,0,0,1.08.24.65.65,0,0,0,.47-.28,1.93,1.93,0,0,0,.26-.49c0-.08.07-.17.12-.25s.13-.08.22-.12l.52-.17h0l.4-.32-.4.31-.53.16c-.07,0-.2,0-.24.13s-.07.17-.11.25c-.14.32-.34.71-.71.74a2.3,2.3,0,0,1-1-.26l-1-.53h0l-.48,0a2.25,2.25,0,0,0-.49.1.69.69,0,0,1-.21.08h-.22l-.24,0a1.83,1.83,0,0,0-.3-.18h0l-.33-.1h-.08a.87.87,0,0,1-.28,0,.45.45,0,0,1,0-.12c0-.24,0-.5,0-.75l0-.37c0-.06,0-.13,0-.16a.76.76,0,0,0,0-.21l3.08-1,.21-.07v0a2,2,0,0,1,.37.12c.14.06.23.19.39.26a.32.32,0,0,0,.14,0,.11.11,0,0,0,.07,0l0,0a.79.79,0,0,1,.22-.06c.15,0,.3-.06.45-.09l.52.25-.51-.27h0l-.46.07a1,1,0,0,0-.24.05l-.06,0h0s-.06,0-.1,0-.22-.2-.37-.28a2.46,2.46,0,0,0-.38-.14l0-.06c.36-1.1.61-1.63.93-2.62a6.66,6.66,0,0,1,.31-.73l.3-.57.36-.09.13,0,.51-.21c.17-.08.34-.16.5-.25a2,2,0,0,0,.25-.14.9.9,0,0,0,.27-.21.57.57,0,0,0,.11-.38,2.83,2.83,0,0,0,0-.3,4.35,4.35,0,0,0-.1-.52v-.69a5.77,5.77,0,0,1,.09-.6A1.15,1.15,0,0,1,127,317s0,0,0,0h0l0,0,.13-.13.82-.95c.14-.16.28-.31.43-.46a1.8,1.8,0,0,1,.21-.19l0,0a.25.25,0,0,0,.09,0,.71.71,0,0,0,.15-.08c.35-.22.67-.47,1-.71l1.52.19c.51.13,1,.26,1.53.41l.18.07.08,0a.22.22,0,0,0,.13,0,1.87,1.87,0,0,0,.41,0,2.57,2.57,0,0,0,.4-.06.58.58,0,0,0,.21-.07l.06-.05,0,0,.08-.05a6.33,6.33,0,0,1,1.49-.48l.77-.09ZM115.1,330l.05,0,.92.45c.25.12.44.25.6.31a.78.78,0,0,0,.37,0l.07,0-.12.66a1.89,1.89,0,0,1,0,.23l-.16.33-.21.25s0,.08-.09.1a.61.61,0,0,0-.15.1.34.34,0,0,1-.16.18l-.17.08-1.25-1.43A6.09,6.09,0,0,1,115.1,330Zm5.86,1.93-.5,1.17-.07.15,0,.06,0,.09a2.14,2.14,0,0,0-.08.32l-.06.33c0,.05,0,.11,0,.17a.75.75,0,0,0,0,.11l0,.38-.28.74,0,.39-.25.52a.86.86,0,0,1-.17.21.51.51,0,0,0-.14.15,2.84,2.84,0,0,0-.14-.32,1.34,1.34,0,0,0-.17-.27l-.11-.13-.08-.09-.33-.35-1.29-1.45-1-1.1a1.45,1.45,0,0,1,.24-.35,1.56,1.56,0,0,0,.29-.33,2,2,0,0,0,.29-.82l.09-.65.14.07h0c.2,0,.37,0,.58,0s.32-.24.46-.32.39,0,.53-.18a2,2,0,0,1,.54-.09,4.07,4.07,0,0,1,.5.13,2.5,2.5,0,0,1,.48.21,2.81,2.81,0,0,0,1,.14Zm-3.84-1.12.19.08h0Zm3.61-2.69v0Zm-.59-.25.28.07a1.58,1.58,0,0,1,.29.17l0,0h0s0,0,0,.07l.07.2.27.76c0,.13.08.26.11.38s0,.26,0,.39.08.52.12.78v0a3,3,0,0,1-1-.12,2.65,2.65,0,0,0-.49-.2,3.18,3.18,0,0,0-.51-.13h0a2.28,2.28,0,0,0-.57.1c-.14.15-.34.11-.53.19s-.26.31-.44.33l-.52,0-.19-.09-.52-.27a4.76,4.76,0,0,0-.65-.29l-.17-.09-.23-.11-.39-.18a1.48,1.48,0,0,1,.92-.93,2.7,2.7,0,0,0,1-.46,4.28,4.28,0,0,0,.75-.72,6.67,6.67,0,0,0,.91-1.51l.65-.21a1.15,1.15,0,0,0,0,.18v.39c0,.26,0,.52,0,.79a1.77,1.77,0,0,0,0,.21.29.29,0,0,0,.12.2.32.32,0,0,0,.17.08A1.11,1.11,0,0,0,120.14,327.85Z" transform="translate(-34.79 -205.06)"/><path class="cls-1" d="M117.12,330.78l-.18.94-.16.33s-.14-.69-.19-.85a7.61,7.61,0,0,0-.64-1Z" transform="translate(-34.79 -205.06)"/><path class="cls-1" d="M120.18,334a1.89,1.89,0,0,1-.68.62c-.34.13-.63.26-.8.3a5.32,5.32,0,0,1-.88,0l.5.59.72-.3s.55-.17.63-.34.49-.17.49-.17Z" transform="translate(-34.79 -205.06)"/><path class="cls-1" d="M119.67,327.7s-1.71,0-1.82,0l-.24.09-.17.34L118,328l.63-.25S119.66,328,119.67,327.7Z" transform="translate(-34.79 -205.06)"/><path class="cls-1" d="M118.66,342.28a2.56,2.56,0,0,0-.09.93,6.57,6.57,0,0,1,.05,1.26s.29.51.08.72a3.57,3.57,0,0,0-.46.72l-.63.88-.13.26.8-.68a6.1,6.1,0,0,1,.63-.93c.17-.12.17-.63.17-.63l-.13-1.26.43-.38Z" transform="translate(-34.79 -205.06)"/><path class="cls-1" d="M116.89,348.35s-.89,1.69-1.1,1.94a5.83,5.83,0,0,0-.5,1.27s-.42.92-.68,1.05-.42,1-.42,1a.76.76,0,0,1-.29.5,1,1,0,0,1-.51.17l.89,2.24-.76-.8-.85-1s.53-1.14.64-1.06c.29.22.6-.07.29-.54l.51-.64.71-.46.72-2S116.59,348.27,116.89,348.35Z" transform="translate(-34.79 -205.06)"/><path class="cls-1" d="M122.87,309.83a2.48,2.48,0,0,0-.44.48c0,.06,0,.07,0,.13v.17l0,.35v0h0l-.63.28,0,0-.51,1.05.46-1.07h0l.61-.3,0,0,0-.34v-.16a.34.34,0,0,1,0-.2,2.53,2.53,0,0,1,.44-.53Z" transform="translate(-34.79 -205.06)"/><path class="cls-1" d="M132.3,329.54l2.42-1.05-2.41-5.11a1.24,1.24,0,0,1,.18-.22c.08-.1.22-.14.33-.24a2.18,2.18,0,0,1,.25.28c.08.11.09.28.2.42s0,.07.1.09h.08s0,0,0,0a.79.79,0,0,1,.22.06l.44.16.32.47-.3-.49h0c-.14-.06-.28-.13-.43-.18l-.22-.08h-.11a.16.16,0,0,1-.07-.07c-.08-.11-.09-.28-.18-.42a2,2,0,0,0-.25-.32l0-.07a.09.09,0,0,0,0-.07.09.09,0,0,1,0-.05,2,2,0,0,1,0-.23c0-.15,0-.3.07-.45l.41-.4-.43.38h0c0,.15-.07.3-.1.46l0,.23s0,.06,0,.07,0,0,0,0l0,0-.07.08a3,3,0,0,0-.35.23,1,1,0,0,0-.17.18l-.59-1.24c0-.45,0-.89,0-1.34q0-.36-.06-.72a2,2,0,0,0-.09-.39.88.88,0,0,0-.1-.24l0,0h0s0,0,0,0a2,2,0,0,1,0-.51l.22-1.49,1.52-1.33,0,0h0a6.49,6.49,0,0,0,.38-.91l-.18-.06a5.28,5.28,0,0,1-.38.84l-.12.06a3.85,3.85,0,0,1-.9.34c-.12,0-.92-.07-1.43-.1l-.25-.12a.74.74,0,0,0-.26-.07h0s0,0,0,0a1.56,1.56,0,0,1-.18-.34,6.43,6.43,0,0,1-.29-.77v0h0a7.9,7.9,0,0,1-.71-1.69c0-.07,0,0,0-.21a1,1,0,0,0,0-.26,3.33,3.33,0,0,0-.13-.45,7.14,7.14,0,0,0-.38-.9l-.12-.22-.07-.11-.07-.07,0,0-.41-.24-.81-.48-1.63-1,0,0h0l-2.15.59c-.23-.39-.45-.8-.69-1.19l-.76-1.23h0l-.08.07.74,1.23c.24.42.47.84.7,1.26l0,.05h.06l2.17-.56,1.57,1,.8.5.4.24c.08,0,.14.18.2.3a5.5,5.5,0,0,1,.36.87,4,4,0,0,1,.13.46,1.68,1.68,0,0,1,0,.2,1.34,1.34,0,0,0,0,.26,5.08,5.08,0,0,0,.32.93c.12.29.25.57.39.85a7.58,7.58,0,0,0,.28.8,2.05,2.05,0,0,0,.22.41.68.68,0,0,0,.12.12s.22.06.18.05l.15.06a9.29,9.29,0,0,1,1,.52c-.08.37-.16.73-.22,1.11,0,.23-.07.47-.09.71a2.59,2.59,0,0,0,0,.78.93.93,0,0,0,0,.13.53.53,0,0,0,.06.13s0,.05,0,.08a1.33,1.33,0,0,1,.06.3c0,.21,0,.43,0,.66,0,.44,0,.88,0,1.33v.12l0,.08,1.26,2.76,0,0s.7,1.93.78,2,0,.49.1.59.08.41.08.41-.37-.21-.48-.13-.46.29-.46.29l-.49-.19-.73-.35.81.61s.48.19.61.08a.61.61,0,0,1,.35-.12l.41.14c.1,0-.58.79-.94,1.2" transform="translate(-34.79 -205.06)"/><path class="cls-1" d="M88.67,271.79a2.19,2.19,0,0,0-.2.25l-.15,0-.19,0h-.29l-.08,0h-.24l-.39,0a3.37,3.37,0,0,0-.88.29c-.22.23-.47.45-.72.68a3.21,3.21,0,0,1-.46.22.82.82,0,0,1-.51.08c-.33-.07-.63-.16-1-.26l-.72.1h0v0l-.44-.82h0l-1.15-1.43,1.17,1.41h0l.46.79.7-.11h0c.32.08.64.17,1,.23a.71.71,0,0,0,.44-.08,3.29,3.29,0,0,0,.42-.22c.23-.23.47-.44.7-.7a4.17,4.17,0,0,1,1-.36h0l.4,0h.21a.25.25,0,0,1,.14,0h0a1.34,1.34,0,0,0,.34,0h0l.38-.08Z" transform="translate(-34.79 -205.06)"/><path class="cls-1" d="M109.83,275.48v0h0v0h0c0,.29-.07.58-.09.88v0a4,4,0,0,0,0,.84c0,.09,0,.15,0,.15l.48-2.12Zm-3.11,9a1.54,1.54,0,0,0-.86-.33,10.46,10.46,0,0,0,.74,1,3,3,0,0,0,.37.45c.14-.16.38-.46.62-.8A1.68,1.68,0,0,1,106.72,284.46Zm18.71,18.16a2.93,2.93,0,0,0-.83-.89,2.76,2.76,0,0,0-1.2-.15c-.25,0-.39-.23-.53-.46a.08.08,0,0,1,0,0l.07-.1a0,0,0,0,0,0,0h0l0,0a.79.79,0,0,1,.12-.15,2.4,2.4,0,0,1,.28-.27,1.21,1.21,0,0,1,.3-.22,3.37,3.37,0,0,0,.66-.48l0-.31-.12-.22.09.23,0,.28a2.86,2.86,0,0,1-.69.37,1.41,1.41,0,0,0-.35.23,2.61,2.61,0,0,0-.31.27l-.14.15,0,0s0,0,0,0v0l0,.06h0a1.09,1.09,0,0,0-.18-.19c-1.2-1.07-.53-.47-1.72-1.57l-1.6-1.35c-.09-.33-.56-.76-.67-1.09l0-.05A11.43,11.43,0,0,1,119,295a9.21,9.21,0,0,1,.77-1.12l.1-.11.12-.09.29-.19.58-.38,1.15-.75,1-.3.53-.16.25-.08a.86.86,0,0,0,.28-.1,2.73,2.73,0,0,0,.68-1l.1-.3-.25-.79.23.78-.22.41a2.22,2.22,0,0,1-.64.74,3,3,0,0,1-.5.15l-.52.14-1,.25a15.88,15.88,0,0,1-1.53-1.41,1.81,1.81,0,0,1-.29-.41s0,0,0-.1l0-.15a1.31,1.31,0,0,0-.12-.27,3.77,3.77,0,0,0-.63-.8c0-.21,0-.41.08-.62a.5.5,0,0,1,.14-.31.71.71,0,0,0,.13-.35l0-1.64-.06,1.63h0a.66.66,0,0,1-.13.32.53.53,0,0,0-.17.33,5.48,5.48,0,0,0-.1.56l-2.11-.66-.89-1.93.83,2v0h0l2.08.74a3.78,3.78,0,0,1,.61.83.79.79,0,0,1,.09.22.65.65,0,0,1,0,.11.55.55,0,0,0,0,.17,1.89,1.89,0,0,0,.31.48,12.42,12.42,0,0,0,1.41,1.4l-1,.62-.59.36-.3.19-.16.11-.14.13a11.12,11.12,0,0,0-.83,1.15c-.24.36-.47.72-.69,1.1l-.05,0a6.37,6.37,0,0,0-1.06-.05c-.31,0-.62,0-.93,0a4.62,4.62,0,0,1-.21-.79l0-.23,0-.11,0-.15a3.25,3.25,0,0,0-.22-.46,9.77,9.77,0,0,0-1.19-1.51l-2.57-2.77h0l-3.57-3.46a2,2,0,0,1-.89-.39,17.2,17.2,0,0,0,1.3-1.63,5.78,5.78,0,0,0,.55-1,8.28,8.28,0,0,0,.38-1v0l.1-1.18c.15-.25.3-.49.46-.73l.26-.37.12-.15.14-.06a6.08,6.08,0,0,1,.87-.12c.29,0,.58,0,.88-.06l1.54.62.09,0,.06-.06,1.09-1h0a8.85,8.85,0,0,0,1-1.37,1.61,1.61,0,0,0,.17-.4,1,1,0,0,0,0-.45,4,4,0,0,0-.23-.81.47.47,0,0,1,0-.31.89.89,0,0,1,.29-.24l.34-.23a.67.67,0,0,0,.3-.37l.28.22.54.34.49.13.35.17c0,.09,0,.3,0,.41s.37.71.54.95l.08-.07a3.78,3.78,0,0,1-.52-.86,2.91,2.91,0,0,0,.06-.45v0l-.42-.21-.48-.13-.53-.33-.35-.28-.06-.11a1.15,1.15,0,0,0-.14-.17l-.25-.22a7.88,7.88,0,0,0-.74-.55h0l-1-.1a7.94,7.94,0,0,0-1.29,0,1,1,0,0,0-.24,0h-.06s0,0,0,0l-.08,0a3,3,0,0,1-.63-.65,5.81,5.81,0,0,1-.51-.78,2.55,2.55,0,0,1-.34-.82,1.61,1.61,0,0,1,0-.22.31.31,0,0,0-.1-.23,1.18,1.18,0,0,0-.42-.24,3.91,3.91,0,0,0-.89-.18l-.34-1.23a.17.17,0,0,0,.12,0l.11-.09.2-.19.37-.41.72-.84.36-.42-.36.41-.73.84-.38.41-.19.19c-.07.05-.16.13-.23.11h0v0l.32,1.28v0h0a3.93,3.93,0,0,1,.89.19.91.91,0,0,1,.38.22.27.27,0,0,1,.08.18.88.88,0,0,0,0,.23,2.65,2.65,0,0,0,.35.87,5.7,5.7,0,0,0,.5.81,3.36,3.36,0,0,0,.64.67l.13,0h.14l.22,0h.45c.61,0,1.22.1,1.82.16a7.62,7.62,0,0,1,.64.48,1.93,1.93,0,0,1,.3.27c.08.09.18.22.15.27s-.12.17-.22.24-.23.15-.35.22a1.31,1.31,0,0,0-.34.3.26.26,0,0,0,0,.12l-.85-.23h0l-.62.43-.58.22-.24,0h0l-.84-.1h0l0,0-.69.71,0,0v0l-.08.69-.2.65H111l-.5.22-.08,0v.09l-.06.84a.42.42,0,0,0-.19.11,1,1,0,0,0-.17.19c-.1.12-.19.25-.28.38s-.33.51-.5.77l0,0v0l-.12,1.19a8.93,8.93,0,0,1-.39,1c0,.08-.15.26-.3.49l-.41.59h0c-.13.18-.26.37-.4.54a1.68,1.68,0,0,1-.87-.33,1.54,1.54,0,0,0-.86-.33c-.18-.4-.15-1-.31-1.45l-.16-.38a10.82,10.82,0,0,1,1-1.13,1.28,1.28,0,0,1,.66-.27,7.67,7.67,0,0,1,.8-.11h.09l0-.08.87-1.53a6.57,6.57,0,0,0,.6-.79,1.91,1.91,0,0,0,.36-1l.48-2.12.92-.37,2.3,1.32-2.28-1.36h0l-1.39.5a4.35,4.35,0,0,1-.6-1.33,6.13,6.13,0,0,0,.15-.7v0l-.58-.38-.7-.26-.75-.6-.51-.5.44.58.76.61.71.27.51.33a5.42,5.42,0,0,1-.14.64c-.07.21.45,1.16.62,1.46,0,.31-.1.63-.12.95a4.08,4.08,0,0,0,0,1,1.62,1.62,0,0,1-.33.78,5.2,5.2,0,0,1-.63.79l0,0h0l-.89,1.44c-.25,0-.5,0-.75.08a3,3,0,0,0-.43.09,1.45,1.45,0,0,0-.22.09.75.75,0,0,0-.12.07l-.09.07a12.13,12.13,0,0,0-.92,1l0,0a21,21,0,0,0-2.29-1.78l-1.82-1.16-.72-.45,0-.66.26-.73-.15-.37c0-.19.08-.34.11-.57a1.62,1.62,0,0,0-.07-.62,3,3,0,0,0-.53-1l-1.73-2.66v0h0l-1.08-1.08a5.46,5.46,0,0,0-1.12-1,10.09,10.09,0,0,1-1.15-.87,2.75,2.75,0,0,1-.4-.44,1.13,1.13,0,0,1-.15-.27c-.06-.08-.11-.17-.17-.26a7.94,7.94,0,0,0-.81-.93h0l-.76,0-.72-1.78L92.5,267h0l.77,0A7.27,7.27,0,0,1,94,268l.16.26c0,.08.08.18.14.28a3.8,3.8,0,0,0,.42.47l.24.24c.19.19.39.37.59.54a.63.63,0,0,1-.17,1.06l-.62.23,0,0h0l-.59.46h0l-.68.53-.71.55h-2l0,0-.85.58a11.36,11.36,0,0,1-1.11-.68c-.16-.13-.38-.32-.32-.39a.61.61,0,0,1,0-.12,2.19,2.19,0,0,1,.2-.25l.13-.12a3.44,3.44,0,0,0,.49-.56.5.5,0,0,0,.08-.2.88.88,0,0,1,0-.15c0-.11.08-.21.13-.32s.2-.44.28-.66.07-.24.1-.35A1.16,1.16,0,0,0,90,269a1.62,1.62,0,0,0-.34-.68,5.07,5.07,0,0,0-.49-.54,10.8,10.8,0,0,0-1.09-.94,4.7,4.7,0,0,0-.59-.4l-.61-.36-1.17-.73a10.16,10.16,0,0,1-.25-1.53,3,3,0,0,0,0-.41.57.57,0,0,0-.2-.3l-.11-.07a.86.86,0,0,0-.23-.06h0a1.61,1.61,0,0,0-.49,0l-2.83-1.84,2.8,1.91h0a1.2,1.2,0,0,1,.75.07.44.44,0,0,1,.19.29,1.59,1.59,0,0,1,0,.38,10.48,10.48,0,0,0,.21,1.59v0l0,0,1.2.76.59.39a4.82,4.82,0,0,1,.57.4c.37.3.72.6,1.06.93a5.4,5.4,0,0,1,.45.52,1.32,1.32,0,0,1,.28.57.72.72,0,0,1,0,.3,2.07,2.07,0,0,1-.1.33c-.08.21-.18.42-.28.64s-.1.22-.14.33l-.06.19a.26.26,0,0,1,0,.12,3.44,3.44,0,0,1-.46.49,3.16,3.16,0,0,0-.34.38.83.83,0,0,0-.12.25.33.33,0,0,0,0,.27.49.49,0,0,0,.13.18,2.18,2.18,0,0,0,.28.25,10.41,10.41,0,0,0,1.22.77l.08.05.09-.06.9-.59H92.9l0,0,1-.76.39-.3.65-.49,1.66-.65,1.3,1.31,1.71,2.65h0a2.77,2.77,0,0,1,.47.9,1.57,1.57,0,0,1,0,.48c0,.12-.07.31-.1.48v0l-.07.28-.07.12-.26.5-.43.75-.74.5-.49.49-.06,1-.69,2.17-1.66.66a5.81,5.81,0,0,0-.83.41l-.79.44a10.52,10.52,0,0,0-1.76.34,1.63,1.63,0,0,0-.83.41,2.22,2.22,0,0,0-.26.89c0,.3-.07.59-.12.89a1.57,1.57,0,0,1-.35.8,5.41,5.41,0,0,1-1.43,1.07,5.85,5.85,0,0,0,1.47-1,1.56,1.56,0,0,0,.38-.82c.07-.29.1-.59.15-.89a2.24,2.24,0,0,1,.26-.83,1.81,1.81,0,0,1,.77-.34,12.92,12.92,0,0,1,1.76-.29h0l.82-.42a5.17,5.17,0,0,1,.83-.38l1.68-.62a7,7,0,0,0,.61.5,3.3,3.3,0,0,0,.8.45,3,3,0,0,0,.44.1,1.19,1.19,0,0,1,.38.17,2.09,2.09,0,0,1,.6.62l0,.11-.08.18,0,0h0l0,0a.74.74,0,0,0-.13.12l-.34.1h0v0l0,.33a1.83,1.83,0,0,1,0,.33s0,.05,0,.07l0,0,0,0a1.19,1.19,0,0,0-.09.15l-.15.29-.14.11a.25.25,0,0,1-.16.06l-.36,0-.72.08h0L97,288l.89-1.35.72-.07.36,0c.07,0,.12,0,.18-.06l.14-.11h0c.05-.09.1-.19.16-.28l.09-.14,0,0,0,0,0-.09a2,2,0,0,0,0-.34v-.29l.32-.09h0a.69.69,0,0,1,.13-.11l0,0,0,0a.25.25,0,0,0,.07-.08l0-.07c.08.24.16.47.26.7a4.23,4.23,0,0,0,.23.48.65.65,0,0,0,.18.22l.23.14c.63.33,1.28.61,1.93.9l.48.77-.46-.79h0c-.64-.29-1.29-.59-1.9-.94-.35-.13-.44-.49-.59-.81s-.19-.54-.28-.81a1.17,1.17,0,0,0,0-.11l-.1,0s0,0,0,0h0a2.37,2.37,0,0,0-.76-.75,1.11,1.11,0,0,0-.27-.12,2.47,2.47,0,0,1-.45-.11c-.49-.21-.68-.64-1.08-1l0-.12.48-2a2.07,2.07,0,0,1,.2-.49,1.24,1.24,0,0,1,.37-.35,3.31,3.31,0,0,1,.91-.43l2.26,1.51h0l1.46.79c.47.25.91.54,1.37.81l.21.92c.15.41,0,.84.2,1.24s1,1,1.18,1.4c.07.11-.06.22-.15.33a.21.21,0,0,0,0,.12.11.11,0,0,0,0,.09c.14.18.89.38,1.06.5l4.06,3.3,1.29,1.37c.44.46.52.8,1,1.24s.79.56,1.11,1.08a1.56,1.56,0,0,1,.61.88l0,.09v.12l0,.24a4.61,4.61,0,0,0,.24.86l0,.08,0,.09h.14c.32,0,.86-.05,1.18-.05a4.27,4.27,0,0,1,.81,0l.1,0s0,0,0,0a.1.1,0,0,1,0,.05l.06.11,0,0a2.49,2.49,0,0,1,.11.29c.12.31.28.84.37,1.16v0l0,0c1.2,1.08,2.41,2.15,3.65,3.19l.16.14.17.13.14.12a1,1,0,0,0,.58.23,2.52,2.52,0,0,1,1.17.12,2.92,2.92,0,0,1,.84.84,11,11,0,0,1,.65,1l-.07.7.08-.7h0A8.46,8.46,0,0,0,125.43,302.62Zm-14.72-23.89.4-.19.56,0h.09l0-.08.2-.74v0h0L112,277l.62-.69,1.06.09h0l.57-.24h0l.6-.46.85.19a.7.7,0,0,0,0,.36,5.26,5.26,0,0,1,.21.77.9.9,0,0,1,0,.37,2.63,2.63,0,0,1-.15.35,10.16,10.16,0,0,1-.95,1.31l-1,.88-1.49-.61h-.06l-.92,0-.7.08ZM115.65,296Z" transform="translate(-34.79 -205.06)"/><path class="cls-1" d="M86.36,262.7a.34.34,0,0,0,.06-.06s0-.06,0-.07a1,1,0,0,1,.11-.23c.09-.15.19-.3.29-.44h0l.26-1.58.53-1.15,1.63-.76,1.71-.23h0l2.2-2.45L91,258.14l-1.71.22h0l-1.66.74h0L87,260.27h0l-.28,1.57c-.1.15-.2.29-.29.44a1.15,1.15,0,0,0-.12.25c0,.08-.08.1-.15.15a11.36,11.36,0,0,1-1.45.35l.48.1a5.77,5.77,0,0,0,1-.36Z" transform="translate(-34.79 -205.06)"/><path class="cls-1" d="M94.23,271.45s-.52-.86-.35-1.12a8.77,8.77,0,0,1,.7-.78l.43-.35-.25-.23a8.46,8.46,0,0,0-.83.88c-.13.22-.44.52-.48.74s0,1.77,0,1.77Z" transform="translate(-34.79 -205.06)"/><path class="cls-1" d="M94.23,271.8a3.22,3.22,0,0,0,.87.61,11.31,11.31,0,0,0,1.34.39,5.91,5.91,0,0,1,1.82,1.12c.52.53,1.86,1.7,1.86,1.7l0,.47L99,275.14l-1.69-1.61-1.13-.43-2.6-1Z" transform="translate(-34.79 -205.06)"/><path class="cls-1" d="M107.76,284.81l-.87,1-.78-1.22s-.76-.39-.25-.5a1.54,1.54,0,0,1,.86.33,1.68,1.68,0,0,0,.87.33Z" transform="translate(-34.79 -205.06)"/><path class="cls-1" d="M108.49,283.9l-.47.82s0-.21,0-.47h0l.41-.59Z" transform="translate(-34.79 -205.06)"/><path class="cls-1" d="M110.27,275.27v0l-.48,2.12s0-.06,0-.15,0-.51,0-.84v0a2.69,2.69,0,0,1,.09-.88h0s0,0,0,0v0Z" transform="translate(-34.79 -205.06)"/><path class="cls-1" d="M115.78,296.13a3.57,3.57,0,0,0,1.17.73,4.6,4.6,0,0,1,1,.26l.79.75-.4-1.92S115.91,295.66,115.78,296.13Z" transform="translate(-34.79 -205.06)"/><polygon class="cls-1" points="65.16 72.03 64.73 70.47 65.51 71.94 65.16 72.03"/><path class="cls-1" d="M106.62,286.25c-.56-.1-2.38-.46-2.48-.73a8,8,0,0,0-.64-1.07v0l-.17-1.11L102,282l-2,.3-2.51.14v-.12l2.51-.14,2.06-.31,1.38,1.38.18,1.13a9.8,9.8,0,0,1,.65,1.09,8.54,8.54,0,0,0,2.38.65Z" transform="translate(-34.79 -205.06)"/><path class="cls-1" d="M162.19,289.92l0,.14a.78.78,0,0,0,0-.14l.09-.63C162.25,289.5,162.22,289.7,162.19,289.92Zm29.69,30.4.07,0c-1-.25-6.88-.9-7.91-1.12h0a3.28,3.28,0,0,1-.43-.4s-.07-.06-.05-.11a.76.76,0,0,0,0-.15,2.93,2.93,0,0,0-.05-.29l.2-.87,0-.71v0h0l-.69-.74h0l-.83-.48-.67-1.41.66,1.41h0l.83.5.67.74,0,.71-.13.51-.08.35v0a2.47,2.47,0,0,1,.06.29v.13a.13.13,0,0,1,0,.05l0,0,0,.07a2.92,2.92,0,0,0,.37.34l-.51-.1A2,2,0,0,1,183,319a6.63,6.63,0,0,1-1-.37l-.11-.05a1.76,1.76,0,0,1,.38-.39c.1-.08.23,0,.37-.08l.38-.1.55-.09L183,318l-.38.07-.19,0a.3.3,0,0,0-.21.05,2,2,0,0,0-.45.41,16.38,16.38,0,0,1-1.5-.78v-.05a7.5,7.5,0,0,0,.68-.56c.1-.1.24-.22.25-.38a1,1,0,0,1,.25-.32h0l.72-1-.75.94a.72.72,0,0,0-.28.34c0,.16-.14.23-.25.34s-.41.32-.64.47l-.15-1.61c-.08-.66.23-1.28.18-1.94a.66.66,0,0,0,.23.05l.2,0h.14a4.36,4.36,0,0,1,.62,0h.11l1.14-.46.66.89a7.43,7.43,0,0,0,.84.94,1.89,1.89,0,0,0,.27.2,1.07,1.07,0,0,0,.19.07l.13,0,.56.21,1.13.5h0c.23,0,.46,0,.68,0a1.16,1.16,0,0,0,.67-.19l1.15-.7h0c.11.27.23.52.36.78l.06-.11a6.74,6.74,0,0,1-.3-.74l1-.62.07-.13-1.28.74-1.15.69a1.07,1.07,0,0,1-.61.15c-.22,0-.44,0-.66,0l-1.1-.53a4.17,4.17,0,0,0-.58-.24.56.56,0,0,0-.17-.06.26.26,0,0,1-.1,0,1.57,1.57,0,0,1-.21-.17,6.43,6.43,0,0,1-.77-.94l-.7-1-.07-.11-.14.05-1.24.43c-.21,0-.41-.05-.63-.06h-.31a.79.79,0,0,1-.23-.08,6.42,6.42,0,0,1-.68-.37,1.85,1.85,0,0,0-.5-.46,8.23,8.23,0,0,0-.95-.54c-.63-.32-1.26-.6-1.9-.87l-2.11-1.54a9.69,9.69,0,0,0,.27-1.87,1.91,1.91,0,0,0-.06-.57l-.07-.18-.1-.12-.16-.2-.64-.78-6.61-3.67.47-2.1.12-.39.66-3v0l0,0-.88-.83,0,0h0l-.77.32c-.53-.39-1.05-.78-1.53-1.21l-.17-.18a.27.27,0,0,1-.11-.19,3.93,3.93,0,0,1,0-.49v-1c-.1-.19-.19-.37-.3-.56a3.77,3.77,0,0,0-.34-.54.63.63,0,0,0-.11-.12.62.62,0,0,0-.16,0,2.8,2.8,0,0,1-.31-.09c-.19-.06-.4-.14-.59-.22l-.3-.55a2.35,2.35,0,0,1-.23-.57c0-.11,0-.22,0-.34a1.07,1.07,0,0,0,.2.93l.29.55h0l.59.22a1.21,1.21,0,0,0,.31.09c.05,0,.11,0,.14,0a.57.57,0,0,1,.11.11,4.34,4.34,0,0,1,.33.54c.1.19.19.37.28.56v1c0,.17,0,.33,0,.5a.48.48,0,0,0,.13.23l.17.18c.5.45,1,.85,1.55,1.25h0l.76-.3.82.79-.82,3.46-.53,2v0l0,.05,6.51,3.8.62.82.16.2.06.08a.64.64,0,0,1,0,.07,2.09,2.09,0,0,1,0,.44,10.23,10.23,0,0,1-.41,1.93l-.06.18h0a7.2,7.2,0,0,1,0,.93c0,.13-.16.23-.27.33a3.58,3.58,0,0,1-.37.28h0v0l-.17,1.23h0v0c-.12.2-.25.42-.39.62l-.13.14-.17.1-.35.2h0l-.32.39-.36.38a.47.47,0,0,0-.15.24,2.51,2.51,0,0,0,0,.27,6.46,6.46,0,0,0,0,.88l0,0-.09.05-.59.32h0l0,0-.38.48-.76-.31-.72-.45,0,0h0l-1.19.11h0l0,0-.7,1.12-.63.38-.88.26h0l-.44,1,.48-.94.89-.22h0l.66-.36h0l.72-1.07,1.12-.07.68.47h0l.84.38h0a2.77,2.77,0,0,1,.34.2.45.45,0,0,1,.12.12.59.59,0,0,1,0,.17,3.52,3.52,0,0,1-.05.64v0l0,0,0,0-.56,1.86-1.62.3a11.42,11.42,0,0,1-1.94-.1,3.33,3.33,0,0,1-.45-.13,1.21,1.21,0,0,1-.37-.25,6.43,6.43,0,0,1-.56-.79.76.76,0,0,0-.32-.29.38.38,0,0,0-.15-.05,1.39,1.39,0,0,0-.53.1l-.47.15a.78.78,0,0,1-.41,0c-.06,0-.11-.22-.13-.36s0-.32,0-.48c0-.33,0-.65,0-1,.4-.61-1.32-1.6-.89-2.19.11-.15-.5-1.84-.38-2a1.9,1.9,0,0,1,.18-.2l0,0a.3.3,0,0,0,.08-.08.83.83,0,0,0,0-.15,3.47,3.47,0,0,0-.15-1.13,8.41,8.41,0,0,0-.36-1.07c-.14-.35-20.45-3.26-20.71-3.56a1.7,1.7,0,0,0-.23-.17.38.38,0,0,1-.1-.21,1.37,1.37,0,0,1,.08-.53c.12-.34-.2-.83,0-1.14v0l-1-1.27,0,0v0c0,.09-.17.1-.27.12l-.33.05-.67,0-1.33.05c-.67,0-1.34,0-2,.09.67,0,1.34-.06,2-.08l1.33,0,.67,0,.34,0,.16,0s.1,0,.12-.08L140,305c-.2.31.13.78,0,1.13a1.37,1.37,0,0,0-.09.57.38.38,0,0,0,.14.27,1.29,1.29,0,0,1,.21.17c.23.27,20.54,3.19,20.68,3.54a9.15,9.15,0,0,1,.33,1.05,3.62,3.62,0,0,1,.14,1.07.76.76,0,0,0,0,.11l0,0-.06,0-.21.21c-.12.14.48,1.83.37,2-.46.6,1.25,1.58.84,2.21v0c0,.33-.06.67-.06,1,0,.16,0,.33,0,.5a2.56,2.56,0,0,0,.05.27.47.47,0,0,0,.19.27.87.87,0,0,0,.58,0l.48-.15a1.46,1.46,0,0,1,.43-.08c.09,0,.2.11.29.25a5.35,5.35,0,0,0,.58.82,1.47,1.47,0,0,0,.45.32,3.28,3.28,0,0,0,.51.15,11.32,11.32,0,0,0,2,.13h0l1.75-.3h.09l0-.1.6-1.92q.35-.4.72-.78a6.68,6.68,0,0,1,.78-.73l.15-.08h.24l.54.05,1,.12,1.18.8,0,0h0c.42.15.83.29,1.27.4a7.91,7.91,0,0,0,1.32.25c.69.05,1.37.05,2,0,.61.38,1.28.2,1.93.52a10.06,10.06,0,0,0,1.12.45c.2.06.42.12.62.16l.53.11c1,.24,7.38,1,8.38,1.24l0-.79A2.76,2.76,0,0,1,191.88,320.32Zm-21.15-2.84c-.24.26-.46.51-.68.77a3.73,3.73,0,0,0,.12-.58.36.36,0,0,0-.14-.44,1.71,1.71,0,0,0-.2-.18l.37-.42.48-.24.65.51C171.12,317.08,170.92,317.29,170.73,317.48Zm7.85.27c-.13.08-1,.35-1,.35a7.8,7.8,0,0,1-1.25-.22l-1-.29.69-.33a2.29,2.29,0,0,1,.59,0c.1.07.22,0,.3-.07a1.57,1.57,0,0,0,.19-.18,1.44,1.44,0,0,0,.38.36.31.31,0,0,0,.31,0,1.42,1.42,0,0,0,.22-.2,6,6,0,0,0,.38-.5.87.87,0,0,0,.22.56S178.7,317.68,178.58,317.75Zm0-1.53,0,.15a9.47,9.47,0,0,1-.56.8l-.18.19a.22.22,0,0,1-.22,0,1.58,1.58,0,0,1-.41-.37l0,0,0,0a2.08,2.08,0,0,1-.21.21c-.07.05-.16.12-.25.07a1.73,1.73,0,0,0-.6,0h0l-.71.35-.23-.07-1-.68-.17-.12-.05,0h0l-1.1-.12-.57,0h-.3a.76.76,0,0,0-.25.1l-.75-.53a6.31,6.31,0,0,1,0-1c0-.17,0-.34.14-.45l.36-.39.31-.4.33-.21.16-.1a.61.61,0,0,0,.13-.16,7.18,7.18,0,0,0,.39-.63l.84,1.53h0c.41.38.82.76,1.2,1.18,0,.05.1.11.08.17a.73.73,0,0,1-.07.19c-.07.12-.14.25-.22.37s-.25.39-.37.58l.39-.57.22-.37.09-.19c0-.09-.06-.14-.1-.2-.37-.43-.78-.81-1.18-1.2l-.83-1.55.18-1.19c.13-.08.25-.17.37-.26s.27-.2.31-.4a6.09,6.09,0,0,0,0-.85l0,0,2.21,1.81,0,0,0,0c.62.29,1.25.61,1.84.94a8.6,8.6,0,0,1,.84.53,1.9,1.9,0,0,1,.23.2v0h0l.7,2.26Z" transform="translate(-34.79 -205.06)"/><path class="cls-1" d="M145.44,248.88a3.32,3.32,0,0,0,.36-.26,2.42,2.42,0,0,0,.35-.3l0,0a.41.41,0,0,0,0-.08l0-.06.14-.14a2.79,2.79,0,0,1,.32-.28h0a5.08,5.08,0,0,1,.93-.47,9.94,9.94,0,0,0,1.08,0,3,3,0,0,0,.53-.18,1,1,0,0,0,.46-.34c.2-.31.37-.63.54-.95v0l.65-.5h0v0l-.3-1h0l-.23-2,.19,2h0l.27,1v0l-.65.48h0a10.74,10.74,0,0,1-.56.92.86.86,0,0,1-.41.28,2.42,2.42,0,0,1-.5.16,9.9,9.9,0,0,1-1.09,0,3.91,3.91,0,0,0-1,.47h0l-.34.28a1.33,1.33,0,0,0-.16.17.41.41,0,0,0-.08.12s0,0,0,0,0,0,0,0a2,2,0,0,1-.31.26l-.36.24Z" transform="translate(-34.79 -205.06)"/><path class="cls-1" d="M154.73,254.57l-.11.11.11-.1.45-.4Zm0,2.36a7,7,0,0,1-.19-.79,3.71,3.71,0,0,1-.22-.55.71.71,0,0,1,0-.57,1.5,1.5,0,0,1,.27-.34,1,1,0,0,0-.28.34.71.71,0,0,0,0,.57,5.37,5.37,0,0,0,.21.56c.07.52.38,1.05.12,1.57a6.07,6.07,0,0,1-.68,1.46,1.18,1.18,0,0,0-.33.73,2.57,2.57,0,0,0,0,.4.71.71,0,0,0,0,.21,1.06,1.06,0,0,1,0,.19c.1.53.17,1.06.24,1.6l0,1.6a12.62,12.62,0,0,0-.86.93,3.16,3.16,0,0,0-.18.27,1.59,1.59,0,0,1-.24.2c-.17.13-.33.26-.51.38l-1.06.72-.13.1a.23.23,0,0,1-.12.06,1,1,0,0,1-.31,0c-.21,0-.42,0-.63,0l-.72-.08a4.64,4.64,0,0,0-.53-.16.85.85,0,0,0-.57,0,4.1,4.1,0,0,0-.67.91,4.47,4.47,0,0,0-.46.93l-.05.1c-.08.05-.26.09-.18.17l-.13-.09c-.6-.46-1.22-.92-1.83-1.37s-1.23-.9-1.9-1.32a3.61,3.61,0,0,0-.56-.31,3,3,0,0,1-.35-.26c-.26-.22-.53-.49-.78-.75-.51-.54-1-1.12-1.49-1.69l-.05-.06-.06,0c-.44-.26-.89-.54-1.31-.82a6.85,6.85,0,0,1-1.15-.93.66.66,0,0,1-.14-.18.54.54,0,0,1,0-.23,3.08,3.08,0,0,1,.17-.68,10.23,10.23,0,0,1,.6-1.36l3.26-3.64,0,0v0l1.62-3,0,0v0l.32-1.8,2.34-1.06.66-.3h0l.18-.08.06,0v0l.09-.25c0-.14.09-.28.13-.42q.77-2.28,1.5-4.59c-.63,1.64-1.26,3.27-1.87,4.92h0c0,.06,0,.12-.08.19l-.1,0-3.2,1.3-.1,0,0,.11-.41,1.84-1.67,2.92L137.19,258l0,0,0,0a11.13,11.13,0,0,0-.7,1.48,4.77,4.77,0,0,0-.23.83,1.75,1.75,0,0,0,0,.55,1.32,1.32,0,0,0,.29.48,8.2,8.2,0,0,0,1.27,1.07c.42.3.84.58,1.28.85.47.58.95,1.15,1.46,1.69.27.28.54.56.85.83a2.42,2.42,0,0,0,.58.41,2.77,2.77,0,0,1,.43.24l.25.17-.5,1.28h0l-.1,3v.18h0l-.28.83-.91-1c-.17-.19-.35-.38-.5-.58s-.26-.43-.38-.65a7.59,7.59,0,0,0-.39-.66,1.38,1.38,0,0,0-.24-.3.61.61,0,0,0-.16-.12.58.58,0,0,0-.2-.05c-.5-.09-1-.22-1.48-.35-1-.22-1.91-.67-2.94-.8l-.08,0s0,0-.05-.05a.91.91,0,0,1-.11-.16,3.37,3.37,0,0,1-.19-.32c-.12-.23-.23-.46-.34-.69-.22-.45-.44-.91-.64-1.38h0l-2.31,0-.08-1.91.07,1.91h0l2.3.05c.2.46.4.92.62,1.37.11.23.22.46.34.69s.12.22.19.33.07.1.1.16l.08.07c.08,0,.07,0,.11,0,1,.12,1.93.59,2.92.81a15,15,0,0,0,1.47.36c.26,0,.41.24.54.44s.26.44.38.66.24.45.39.66.32.39.49.59l1,1.08h0l0,.08.38.56a1.4,1.4,0,0,0,.1.16c.15.41.43,1.14.5,1.26s0,.54,0,.54l-.1,1.35a1.84,1.84,0,0,0-.06.47l0,.81c0,.34-.08.76-.09.87s-.31.54-.34.68-.41.76-.59,1.06l-1.78,2.28,0,0a1.39,1.39,0,0,0-.41-.27,2.56,2.56,0,0,0-.51,0l-1.84,0h-.05l0,0-1.2.84h0l-.8.71-1-.52h0l-1.33.92,1.35-.83,1,.58,0,0,.05,0,.86-.68,1.2-.74,1.79.08a1.28,1.28,0,0,1,.39,0,.6.6,0,0,1,.27.22,2.41,2.41,0,0,1,.32.54,6.58,6.58,0,0,0,.49,1.39,3.34,3.34,0,0,0,.64.89,2,2,0,0,0,1.08.55,2.28,2.28,0,0,1,1.31.8,6.24,6.24,0,0,1,1,1.44l.1.21h.08l-.75,1.54-.06.1v.06a11.9,11.9,0,0,0,.06,1.2,3,3,0,0,0,.33,1.24,2,2,0,0,1,.23,1,8.56,8.56,0,0,1,0,1.13v.08l0,.07a3,3,0,0,1,.18,1,6.69,6.69,0,0,0,0,.92l-.07,0,0,.07c-.22.4-.46.81-.7,1.2-.13.19-.26.38-.4.55a1.46,1.46,0,0,1-.2.22l-.08.06-.12.07-.34-.14s-.13.38-.26.67a.69.69,0,0,0,0,.1,2.76,2.76,0,0,1-.28.45,2.32,2.32,0,0,0-.33.53c-.13.34-.34.91-.4,1l-.18.35h0a1.78,1.78,0,0,1-.12.24l0,0-.05-.05a2.34,2.34,0,0,1-.24-.31,3.68,3.68,0,0,1-.38-.91c0-.32,0-.68,0-1a1.84,1.84,0,0,0-.14-.51.83.83,0,0,0-.28-.46c-.28-.21-.57-.39-.86-.57l-.42-.64v0h0l-1,.21-1.91.09,1.91-.05h0l.93-.18.41.64h0c.28.19.57.38.84.6a.79.79,0,0,1,.23.41,2.19,2.19,0,0,1,.12.49c0,.33,0,.67-.07,1a3.84,3.84,0,0,0,.38,1h0l.17.25.07.09.15.17.08.06,0,0H141l.06-.08,1.33-1.65,0-.05v0a1.12,1.12,0,0,1,0-.13c.1-.21.2-.41.31-.61a2.37,2.37,0,0,1,.34-.51s0,0,0,0h0a1,1,0,0,0,.22-.15,1.52,1.52,0,0,0,.28-.29,4.85,4.85,0,0,0,.45-.59c.26-.37.49-.75.72-1.15l.44-.28h0l5.6-3.55.26-.17-.11-.31-.78-2.12c-.17-.6-.46-1.7-.54-1.9s-.23-.77-.23-.77-.21-.61-.37-.71-.37-.6-.37-.6l.4-1.15,0-.53,0-.28-.51-.74s-.74-.44-.74-.44l-.88-.47-.56-.62a1.18,1.18,0,0,1,0-.2,5.25,5.25,0,0,0,.44-1.06c.1-.38.19-.75.27-1.13v0l0,0L146,279h0a3.06,3.06,0,0,0-.17-.59,2.89,2.89,0,0,0-.15-.31.47.47,0,0,1-.1-.11.83.83,0,0,1-.07-.13c0-.1-.07-.22-.11-.34-.08-.3-.17-.68-.23-.85a.51.51,0,0,1,0-.13c0-.12,0-.24.07-.35l0-.43,0-.06v0a20.33,20.33,0,0,0-.2-3.6c0-.15,0-.33-.05-.46a.68.68,0,0,1,.07-.27,4.32,4.32,0,0,1,.44-.77,13.26,13.26,0,0,1,1.2-1.49l.4-.44a.88.88,0,0,0,.14-.41,5.46,5.46,0,0,1,.44-1.08,3,3,0,0,1,.51-.68.84.84,0,0,1,.49,0,4.48,4.48,0,0,1,.52.16h0l.74.08h0l.64,0a1.64,1.64,0,0,0,.32,0,.4.4,0,0,0,.16-.08l.13-.1,1-.73c.18-.12.35-.25.52-.38a1.26,1.26,0,0,0,.24-.22c.08-.1.11-.18.18-.26.27-.33.56-.64.86-.95h0l0-1.61c-.08-.54-.15-1.08-.25-1.61a1.94,1.94,0,0,0-.05-.2.65.65,0,0,1,0-.19,1.9,1.9,0,0,1,0-.4,1.14,1.14,0,0,1,.32-.71,6.72,6.72,0,0,0,.67-1.47A1.17,1.17,0,0,0,154.76,256.93Zm-12,16.19c-.1-.23-.22-.42-.32-.62l-.27-.5.44-1,0,0,1.2-.24.24.69a1.81,1.81,0,0,0,0,.25c0,.21,0,.35.05.53a22.1,22.1,0,0,1,.19,2.91l-.11-.11h0l-.9-.6C143.08,274,142.94,273.53,142.76,273.12Zm.12,2.31c.07-.31.16-.62.25-.92l1,.52.16.12a8.09,8.09,0,0,1-.06.85,2.82,2.82,0,0,1-.21.8l-.09.15,0,.05-.08.1-.33.38-.57.71-.11-1.76A3.2,3.2,0,0,1,142.88,275.43Zm7.34,17.43-5.13,3.39-.6-1.61a8.66,8.66,0,0,0,.14-1.14,2.39,2.39,0,0,0-.18-1.26,2.76,2.76,0,0,1-.13-1c0-.34,0-.68.06-1l1-1.6,3.5.89C149.33,290.63,149.77,291.75,150.22,292.86Zm-3.36-9.53a4,4,0,0,0,.74.47c.27.1.78.47,1,.54a.93.93,0,0,1,.39.31l.08.23-.23,1.08s-.17.33-.27.57a3.64,3.64,0,0,0-.16.44l-.22-.13c-.26-.16-.52-.28-.78-.41l-.37-1.92v0h0l-.21-.53Zm-.12,1.23.3,2v.09l.1.05c.27.13.56.29.82.45a1.56,1.56,0,0,1,.6.56,7.65,7.65,0,0,1,.34.88l-3.94-1a6.27,6.27,0,0,0-1-1.49,3.87,3.87,0,0,0-.8-.7,2.62,2.62,0,0,0-.72-.33,3.48,3.48,0,0,0,.77-.35.88.88,0,0,0,.2-.19.25.25,0,0,0,0-.09l0-.08a0,0,0,0,1,0,0c0-.08.15-.16.26-.23a3.67,3.67,0,0,1,.76-.31h0l1.81-1.19a3.24,3.24,0,0,0,.06.88A7,7,0,0,0,146.74,284.56Zm.46-4.4c-.09.36-.19.72-.31,1.07a4.78,4.78,0,0,1-.47,1,1.5,1.5,0,0,0-.06.29l-1.91,1a3.58,3.58,0,0,0-.82.27.85.85,0,0,0-.4.3.3.3,0,0,0-.07.15c0,.05,0,0,0,0l-.11.08a3,3,0,0,1-.76.25c-.19,0-.39.08-.6.12a2.2,2.2,0,0,1-.56-.75,5.36,5.36,0,0,1-.47-1.45l1.35-1.7.15-.11.74-.65.71-.37a4.73,4.73,0,0,1,1.11-.2,4.43,4.43,0,0,0,1.24-.55Zm-2-2.23a1.34,1.34,0,0,0,.11.14l.12.1a1.06,1.06,0,0,1,.19.23,2.81,2.81,0,0,1,.27.55l-1.63.28-1.12.16,1-1.27.32-.37.08-.1.1-.13a2,2,0,0,0,.16-.28A4.33,4.33,0,0,0,145.24,277.93Zm-.55-7.9a6.42,6.42,0,0,0-.46.78l-.16-.37-.07-.15-.14,0-1.54.38,0-2.78s.16-.49.36-.59a1.32,1.32,0,0,0,.37-.46c.41.28.82.57,1.21.87s1,.71,1.42,1.07C145.32,269.21,145,269.6,144.69,270Z" transform="translate(-34.79 -205.06)"/><path class="cls-1" d="M142.44,300.57l-.19-1.16a.69.69,0,0,0,0,.1,2.76,2.76,0,0,1-.28.45l.11.6-1,1.32h0l-.15.2v0l-.28,0-1-.09h0a2.9,2.9,0,0,0-.47.16,1.07,1.07,0,0,0-.46.31l-.06.09-.06.07-.18.13a2.58,2.58,0,0,1-.37.19,4,4,0,0,0-.75-.21.64.64,0,0,0-.48.1s-.16,0-.27,0A8.33,8.33,0,0,1,135,302l0,0h-.05l-1,.3h0l0,0-.28.58-.3.61a.88.88,0,0,1,0,.15l.33-.61.32-.63.94-.25a8.44,8.44,0,0,0,1.38.8,1.05,1.05,0,0,0,.21.06h.14s.14-.07.14-.07a.45.45,0,0,1,.3,0,2.81,2.81,0,0,1,.73.23h.06l0,0a3.1,3.1,0,0,0,.45-.21l.23-.15.1-.11.06-.1a1,1,0,0,1,.35-.2l.42-.13,1.35.15H141l.06-.08,1.33-1.65,0-.05h0Z" transform="translate(-34.79 -205.06)"/><path class="cls-1" d="M135.1,331.57c0,.32,1.05,7,1.05,7l2.86,3.61,17,2.27-16.49-2.84-2.64-3.32-2.17-9.77-2.42,1.05,1.85.11Z" transform="translate(-34.79 -205.06)"/><path class="cls-1" d="M100.65,320.28a13.9,13.9,0,0,1,2.54-.69,12.19,12.19,0,0,1,4.34.17c2.2.45,3.16-.73,4.31-1.29,1.37-.66,3.28.42,3.28.42a4.39,4.39,0,0,1,1.75-6.11c.18-.09.35-.18.53-.25a11.82,11.82,0,0,1,4.35-1c4.13-.2,6-1.43,6.8-2.52a2.92,2.92,0,0,0,.31-.47,3.3,3.3,0,0,1-.87-.29,3.68,3.68,0,0,1-1.71-4.85,2.42,2.42,0,0,0-.56,0c-1.37,0-3.51.79-6.1,4.31a11.58,11.58,0,0,1-2.47,2.52,11.86,11.86,0,0,1-1.23.79,4.4,4.4,0,0,1-6-2s-.16,2.18-1.48,3c-1.1.64-2.62.77-3.48,2.86a11.86,11.86,0,0,1-2.27,3.68A13.21,13.21,0,0,1,100.65,320.28ZM121.46,309c1.78-2.38,3.17-3.15,4-3.31v.06a2.85,2.85,0,0,0,.11.39,0,0,0,0,0,0,0,4.5,4.5,0,0,0,1,1.72l0,0h0a4.16,4.16,0,0,1-1.56.87,12.41,12.41,0,0,1-3.37.56l-.45,0Zm-13,5.49a10.36,10.36,0,0,0,1.07-.52,4.24,4.24,0,0,0,1.15-1,6.46,6.46,0,0,0,1.15.5,6.69,6.69,0,0,0,1.14.26,6.59,6.59,0,0,0-.65,2.31,4.65,4.65,0,0,0-1.45.41,10.44,10.44,0,0,0-1,.6,2.08,2.08,0,0,1-1.86.51c-.59-.12-1.16-.2-1.72-.27a16.4,16.4,0,0,0,.74-1.57C107.3,315,107.64,314.82,108.45,314.47Z" transform="translate(-34.79 -205.06)"/><path class="cls-1" d="M140.52,264.76a12.18,12.18,0,0,1-3,3c-1.81,1.27-1.62,2.74-2,3.93-.45,1.43-2.51,2.05-2.51,2.05a4.3,4.3,0,0,1,3.16,5.36c-.05.19-.86,3-.93,3.19-.48,1.39-3.54,10.86-4.49,12-2.67,3.1-3,5.25-2.8,6.56a3.53,3.53,0,0,0,.14.54h0a.1.1,0,0,1,.05,0,3.67,3.67,0,0,1,5,1.27,2.74,2.74,0,0,1,.21.42,3.37,3.37,0,0,0,.42-.37c.92-.95,1.85-3,1.1-7.21-.25-1.45,2-11.16,2.26-12.59,0-.19.83-3,.88-3.21a4.31,4.31,0,0,1,5.47-3s-1.45-1.59-1.11-3c.29-1.22,1.21-2.39.31-4.4a11.93,11.93,0,0,1-1.09-4.1,12.9,12.9,0,0,1,.12-2.58A14.15,14.15,0,0,1,140.52,264.76Zm-7.78,31c.51,2.87.12,4.37-.32,5.06l-.06,0a4.25,4.25,0,0,0-2.28-.62,4.08,4.08,0,0,1,.44-1.73,11.84,11.84,0,0,1,1.87-2.77c.1-.11.19-.23.28-.34C132.7,295.46,132.72,295.61,132.74,295.76Zm8-25.7a2.05,2.05,0,0,1-.1,1.89,9.77,9.77,0,0,0-.35,1.11,4.33,4.33,0,0,0-.08,1.47,5.94,5.94,0,0,0-1.13.49,6,6,0,0,0-.95.63,6.52,6.52,0,0,0-1.2-2,4,4,0,0,0,.68-1.3,8.08,8.08,0,0,0,.27-1.14c.17-.85.23-1.2.89-1.66.48-.34.93-.69,1.34-1A14.42,14.42,0,0,0,140.72,270.06Z" transform="translate(-34.79 -205.06)"/><path class="cls-1" d="M134.07,304.59a4.21,4.21,0,0,0-.39-1.51l-.08-.15a4.23,4.23,0,0,0-.59-.86l0,0a4.2,4.2,0,0,0-1.65-1.13h0a4.31,4.31,0,0,0-1.44-.25,3.86,3.86,0,0,0-.84.09,4.19,4.19,0,0,0,.47,8.29l.37,0a4.21,4.21,0,0,0,4.2-4.14v-.06C134.08,304.77,134.07,304.68,134.07,304.59Zm-4.19,3.94a2.52,2.52,0,0,1-.48,0,3.66,3.66,0,0,1-.43-7.18,3.44,3.44,0,0,1,.91-.12,3.67,3.67,0,0,1,3.42,2.35.88.88,0,0,1,0,.15,3.5,3.5,0,0,1,.19,1.08v0a.13.13,0,0,1,0,.06A3.68,3.68,0,0,1,129.88,308.53Z" transform="translate(-34.79 -205.06)"/><path class="cls-1" d="M129.88,308.08a3.22,3.22,0,1,1,3.22-3.22A3.22,3.22,0,0,1,129.88,308.08Zm0-5.39a2.17,2.17,0,1,0,2.17,2.17A2.18,2.18,0,0,0,129.88,302.69Z" transform="translate(-34.79 -205.06)"/><circle class="cls-1" cx="95.11" cy="99.8" r="1.23"/><path class="cls-1" d="M376.78,327.88v19.36a2.1,2.1,0,0,0,.65,1.45,2,2,0,0,0,1.46.59h.4l0,.33h-10v-.33h.43a2,2,0,0,0,1.43-.59,2.19,2.19,0,0,0,.68-1.42V327.88h-4.45a3.17,3.17,0,0,0-3.3,3.37v.39h-.33v-5.73a11,11,0,0,0,3.89.59h13.29a14,14,0,0,0,2.22-.2,8.44,8.44,0,0,0,1.67-.39v5.73h-.33v-.39a3,3,0,0,0-1.55-2.9,3.69,3.69,0,0,0-1.75-.47Z" transform="translate(-34.79 -205.06)"/><path class="cls-1" d="M425.41,328h-1.52V347.2a2.16,2.16,0,0,0,.64,1.47,2,2,0,0,0,1.47.61h.43v.33h-10v-.33h.43a2,2,0,0,0,1.81-1,2.37,2.37,0,0,0,.3-1v-18.3a2.17,2.17,0,0,0-.65-1.47,2,2,0,0,0-1.46-.61h-.43v-.33h11.31a9.9,9.9,0,0,1,5.4,1.39,4.89,4.89,0,0,1,1.78,1.93,6.84,6.84,0,0,1,.66,3.23,6.33,6.33,0,0,1-1.38,3.84,5.48,5.48,0,0,1-4,2.11,6.47,6.47,0,0,1,3.37,2.9q3.56,5.7,5.27,6.79a4.24,4.24,0,0,0,2.14.56v.33H437.7a12.8,12.8,0,0,1-4.76-.76,5.89,5.89,0,0,1-3-2.67c-.42-.73-1.33-2.6-2.74-5.64-.61-1.34-1.36-2.07-2.24-2.21V338h1a4.1,4.1,0,0,0,2.62-.9,4.63,4.63,0,0,0,1.53-2.9,6.1,6.1,0,0,0,.14-1.08,5.76,5.76,0,0,0-1.09-3.91,3.72,3.72,0,0,0-2.8-1.24Z" transform="translate(-34.79 -205.06)"/><path class="cls-1" d="M493.15,349.28h.3v.33H482.93v-.33h.3a1.27,1.27,0,0,0,1.07-.45,1.38,1.38,0,0,0,.35-.84,2.08,2.08,0,0,0-.17-.79l-1.61-4.05h-7.72l-1.71,4.05a2.31,2.31,0,0,0-.17.81,1.41,1.41,0,0,0,1.45,1.27H475v.33h-7.06v-.33h.3a2.88,2.88,0,0,0,1.52-.46,3.55,3.55,0,0,0,1.25-1.39l7.61-17.24a16.76,16.76,0,0,0,1.65-4.32h.3l9.79,21.5a3.68,3.68,0,0,0,1.25,1.43A2.9,2.9,0,0,0,493.15,349.28Zm-17.44-7.52h6.6l-3.2-8.11Z" transform="translate(-34.79 -205.06)"/><path class="cls-1" d="M544.68,329.63a12.2,12.2,0,0,1,0,16.88q-3.4,3.11-9.23,3.1h-12v-.33h.43a2,2,0,0,0,1.47-.61,2.16,2.16,0,0,0,.64-1.47V328.74a1.66,1.66,0,0,0-.64-1.33,2.19,2.19,0,0,0-1.47-.55h-.43v-.33h12Q541.29,326.53,544.68,329.63ZM535,348.19a6.88,6.88,0,0,0,4.1-1.22,7.62,7.62,0,0,0,2.66-3.51,13.34,13.34,0,0,0,.92-5,16.92,16.92,0,0,0-.54-4.6,9.94,9.94,0,0,0-1.54-3.22,6.61,6.61,0,0,0-5.6-2.73H531v20.27Z" transform="translate(-34.79 -205.06)"/><path class="cls-1" d="M580.22,349.28a2,2,0,0,0,1.46-.61,2.17,2.17,0,0,0,.65-1.47V328.91a2.06,2.06,0,0,0-.65-1.45,2,2,0,0,0-1.46-.6h-.43v-.33h10l0,.33h-.4a2.05,2.05,0,0,0-1.48.6,1.89,1.89,0,0,0-.63,1.45V347.2a2,2,0,0,0,.63,1.47,2,2,0,0,0,1.48.61h.4l0,.33h-10v-.33Z" transform="translate(-34.79 -205.06)"/><path class="cls-1" d="M647.73,326.86a1.92,1.92,0,0,0-1.75,1,2.16,2.16,0,0,0-.29,1v17a19.81,19.81,0,0,0,.29,3.73l.1.49h-.3l-16.64-15.86V347.3a1.85,1.85,0,0,0,.59,1.4,1.94,1.94,0,0,0,1.42.58h.62v.33h-10v-.33h.6a2,2,0,0,0,1.45-.58,1.92,1.92,0,0,0,.59-1.43V330.16a18.39,18.39,0,0,0-.3-3.63l-.06-.49h.3L641,341.9v-13a2,2,0,0,0-.62-1.43,2,2,0,0,0-1.42-.58h-.59v-.33h10v.33Z" transform="translate(-34.79 -205.06)"/><path class="cls-1" d="M692.37,350.07a12.55,12.55,0,0,1-9-3.25,12.93,12.93,0,0,1,0-17.52q3.4-3.23,9.24-3.23a25.23,25.23,0,0,1,5.11.51,16.76,16.76,0,0,1,4,1.27l.07,5.67h-.3a7.84,7.84,0,0,0-2.93-4.63,8.49,8.49,0,0,0-5-1.43,7.21,7.21,0,0,0-6.13,2.85q-2.14,2.85-2.14,7.81t2,7.76a6.39,6.39,0,0,0,5.55,2.81,6.47,6.47,0,0,0,4.35-1.49,4.51,4.51,0,0,0,1.26-1.78v-5a1.38,1.38,0,0,0-.45-1.11,1.91,1.91,0,0,0-1.27-.38h-.52v-.32h9.26v.32h-.49a1.78,1.78,0,0,0-1.22.38,1.4,1.4,0,0,0-.43,1.11v5.44a10.46,10.46,0,0,1-4.26,3A16.47,16.47,0,0,1,692.37,350.07Z" transform="translate(-34.79 -205.06)"/><path class="cls-1" d="M233.78,294.31a3.85,3.85,0,0,0,2.9-1.28A4.55,4.55,0,0,0,238,290V251.57a4.21,4.21,0,0,0-2.15-3.74,3.81,3.81,0,0,0-2-.55h-.85v-.69h19.82l-.07.69h-.78a3.91,3.91,0,0,0-3.58,2.14,4.09,4.09,0,0,0-.59,2.15V290A4.27,4.27,0,0,0,249,293a3.94,3.94,0,0,0,2.93,1.28h.78l.07.69H232.93v-.69Zm47.06.69H275.5q-9.92,0-14-5.74-11.67-16.81-11.66-17.09l15.44-21.71a2.14,2.14,0,0,0,.53-1.24,2.24,2.24,0,0,0-.2-1,1.88,1.88,0,0,0-1.82-1h-.66v-.62H278v.62h-.26a8.81,8.81,0,0,0-7.11,3.32L258,266.5,274.19,290q3,4.14,6.65,4.29Z" transform="translate(-34.79 -205.06)"/><path class="cls-1" d="M300.27,249.63h-3V290a4.6,4.6,0,0,0,1.27,3.08,3.85,3.85,0,0,0,2.9,1.28h.85V295H282.47v-.69h.85a3.92,3.92,0,0,0,3.58-2.15,5,5,0,0,0,.59-2.14V251.63a4.58,4.58,0,0,0-1.27-3.07,3.85,3.85,0,0,0-2.9-1.28h-.85v-.69h22.36a18.93,18.93,0,0,1,10.69,2.9,10.18,10.18,0,0,1,3.52,4,15.12,15.12,0,0,1,1.3,6.77,13.77,13.77,0,0,1-2.73,8.06,10.62,10.62,0,0,1-8,4.43q3.78,1.31,6.65,6.08,7,12,10.43,14.25a8,8,0,0,0,4.24,1.18V295h-6.39a24.24,24.24,0,0,1-9.42-1.59,12,12,0,0,1-5.9-5.61Q308,285.52,303.85,276c-1.22-2.81-2.69-4.36-4.43-4.63v-.7h2a7.88,7.88,0,0,0,5.18-1.86q2.25-1.87,3-6.09a13.13,13.13,0,0,0,.26-2.28c0-3.78-.71-6.51-2.15-8.2a7.16,7.16,0,0,0-5.54-2.59Z" transform="translate(-34.79 -205.06)"/><path class="cls-1" d="M336.41,252.4q6.94-6.78,18.71-6.78t18.7,6.78q6.94,6.78,6.95,18.39t-6.95,18.4q-6.93,6.78-18.7,6.78t-18.71-6.78q-6.95-6.78-6.94-18.4T336.41,252.4Zm7.76,34.68a13,13,0,0,0,21.86,0q4.05-6,4.05-16.29T366,254.5a13,13,0,0,0-21.86,0q-4,6-4,16.29T344.17,287.08Z" transform="translate(-34.79 -205.06)"/><path class="cls-1" d="M435.45,247.28a3.74,3.74,0,0,0-3.45,2.07,4.55,4.55,0,0,0-.59,2.08v35.68a44.12,44.12,0,0,0,.59,7.82l.19,1h-.58L398.69,262.7v27.46a4.08,4.08,0,0,0,1.17,2.94,3.82,3.82,0,0,0,2.81,1.21h1.24V295H384.16v-.69h1.17a3.88,3.88,0,0,0,2.87-1.21,4.17,4.17,0,0,0,1.17-3v-35.9a41.18,41.18,0,0,0-.59-7.6l-.13-1h.59l32.92,33.27V251.5a4.44,4.44,0,0,0-1.24-3,3.76,3.76,0,0,0-2.8-1.21h-1.18v-.69h19.75v.69Z" transform="translate(-34.79 -205.06)"/><path class="cls-1" d="M447.61,252.4q6.94-6.78,18.71-6.78T485,252.4q6.94,6.78,7,18.39t-7,18.4q-6.93,6.78-18.7,6.78t-18.71-6.78q-6.94-6.78-6.94-18.4T447.61,252.4Zm7.76,34.68a13,13,0,0,0,21.86,0q4-6,4-16.29t-4-16.29a13,13,0,0,0-21.86,0q-4,6-4,16.29T455.37,287.08Z" transform="translate(-34.79 -205.06)"/><path class="cls-1" d="M498,288.57a16.83,16.83,0,0,1,2-8.51h.59a8.27,8.27,0,0,0-.07,1.11,12,12,0,0,0,3.23,8.33,11.32,11.32,0,0,0,8.83,3.56,9.81,9.81,0,0,0,6.81-2.21,7.25,7.25,0,0,0,2.45-5.6,5.83,5.83,0,0,0-1.21-3.6,17.59,17.59,0,0,0-4-3.53l-11.34-7.95q-6.31-4.5-6.32-11.06a7.27,7.27,0,0,1,.13-1.39,12.65,12.65,0,0,1,4-8.78q3.62-3.31,9.68-3.32a70.37,70.37,0,0,1,8.86.69h4.11l-.85,10.17h-.65a7.28,7.28,0,0,0-2.51-5.78,9.84,9.84,0,0,0-6.68-2.18q-5.08,0-7.37,3.32A5.37,5.37,0,0,0,506.5,255a5.58,5.58,0,0,0,.59,2.7,11.58,11.58,0,0,0,4,3.87l12.45,8.58q5.87,4.08,5.87,10.65,0,7.33-4.73,11.24T512.1,296a28.37,28.37,0,0,1-8.18-1.14,12.07,12.07,0,0,1-5.5-3.08A9.62,9.62,0,0,1,498,288.57Z" transform="translate(-34.79 -205.06)"/><path class="cls-1" d="M552.26,294.31a3.86,3.86,0,0,0,2.9-1.28,4.6,4.6,0,0,0,1.27-3.08V251.57a4.21,4.21,0,0,0-2.15-3.74,3.83,3.83,0,0,0-2-.55h-.85v-.69h19.82l-.07.69h-.78a3.92,3.92,0,0,0-3.59,2.14,4.08,4.08,0,0,0-.58,2.15V290a4.3,4.3,0,0,0,1.23,3.08,4,4,0,0,0,2.94,1.28h.78l.07.69H551.41v-.69Zm47.06.69H594q-9.9,0-14-5.74-11.67-16.81-11.67-17.09l15.45-21.71a2.12,2.12,0,0,0,.52-1.24,2.24,2.24,0,0,0-.19-1,1.88,1.88,0,0,0-1.83-1h-.65v-.62h14.92v.62h-.26a8.79,8.79,0,0,0-7.1,3.32l-12.71,16L592.67,290c2,2.76,4.21,4.19,6.65,4.29Z" transform="translate(-34.79 -205.06)"/><path class="cls-1" d="M646.12,294.31h.59V295h-20.8v-.69h.59a2.48,2.48,0,0,0,2.12-.94,3.06,3.06,0,0,0,.68-1.76A4.46,4.46,0,0,0,629,290l-3.19-8.51H610.53L607.14,290a4.91,4.91,0,0,0-.33,1.69,2.91,2.91,0,0,0,.72,1.73,2.56,2.56,0,0,0,2.15.94h.52V295h-14v-.69h.59a5.54,5.54,0,0,0,3-1,7.24,7.24,0,0,0,2.47-2.91l15.06-36.17q3.06-6.84,3.26-9h.59l19.36,45.08a7.31,7.31,0,0,0,2.47,3A5.45,5.45,0,0,0,646.12,294.31Zm-34.49-15.77h13l-6.32-17Z" transform="translate(-34.79 -205.06)"/><path class="cls-1" d="M685.55,260.42a15.55,15.55,0,0,1-1.17,6,12.73,12.73,0,0,1-8.21,7.48,10,10,0,0,1-3.26.62,14.1,14.1,0,0,1-8.28-2.56v-.69a9.5,9.5,0,0,0,7.89-3.39,11.83,11.83,0,0,0,2.6-7.95q0-5-2.25-7.72a7.48,7.48,0,0,0-6.09-2.73h-4.37V290a4.27,4.27,0,0,0,1.24,3.08,4,4,0,0,0,2.93,1.28h.85V295H647.61v-.69h.85a3.85,3.85,0,0,0,2.9-1.28,4.55,4.55,0,0,0,1.27-3.08V251.29a3.75,3.75,0,0,0-1.23-2.87,4.21,4.21,0,0,0-2.94-1.14h-.85v-.69h21.78q8,0,12,3.59A13.19,13.19,0,0,1,685.55,260.42Z" transform="translate(-34.79 -205.06)"/><path class="cls-1" d="M690.83,294.31a3.85,3.85,0,0,0,2.9-1.28A4.55,4.55,0,0,0,695,290V251.57a4.42,4.42,0,0,0-1.27-3,3.88,3.88,0,0,0-2.9-1.24H690v-.69H709.8l-.07.69H709a4,4,0,0,0-2.93,1.24,4.15,4.15,0,0,0-1.24,3V290A4.27,4.27,0,0,0,706,293a4,4,0,0,0,2.93,1.28h.78l.07.69H690v-.69Z" transform="translate(-34.79 -205.06)"/><path class="cls-1" d="M739.07,249.42V290a4.4,4.4,0,0,0,1.27,3,3.89,3.89,0,0,0,2.9,1.25H744l.07.69H724.27v-.69h.85a3.82,3.82,0,0,0,2.83-1.25,4.64,4.64,0,0,0,1.34-3V249.42h-8.8a6.34,6.34,0,0,0-4.76,2,7.22,7.22,0,0,0-1.76,5.05v.83h-.65v-12a20.4,20.4,0,0,0,7.69,1.25h26.27a25.44,25.44,0,0,0,4.4-.42,14.92,14.92,0,0,0,3.29-.83v12h-.65v-.83q0-4.29-3.07-6.09a6.85,6.85,0,0,0-3.45-1Z" transform="translate(-34.79 -205.06)"/><path class="cls-1" d="M798.18,294.31h.59V295H778v-.69h.58a2.45,2.45,0,0,0,2.12-.94,3,3,0,0,0,.69-1.76A4.46,4.46,0,0,0,781,290l-3.19-8.51H762.59L759.21,290a4.91,4.91,0,0,0-.33,1.69,2.91,2.91,0,0,0,.72,1.73,2.54,2.54,0,0,0,2.15.94h.52V295H748.32v-.69h.59a5.51,5.51,0,0,0,3-1,7.26,7.26,0,0,0,2.48-2.91l15.06-36.17q3.06-6.84,3.26-9h.59l19.35,45.08a7.33,7.33,0,0,0,2.48,3A5.45,5.45,0,0,0,798.18,294.31ZM763.7,278.54h13l-6.32-17Z" transform="translate(-34.79 -205.06)"/><path class="cls-1" d="M800.33,294.31a3.88,3.88,0,0,0,2.91-1.28,4.65,4.65,0,0,0,1.27-3.08V251.63a4.62,4.62,0,0,0-1.27-3.07,3.88,3.88,0,0,0-2.91-1.28h-.84v-.69H819.3l-.06.69h-.79a4,4,0,0,0-2.93,1.28,4.24,4.24,0,0,0-1.24,3.07V292h8.54a11.51,11.51,0,0,0,8-2.9,17.43,17.43,0,0,0,4.79-8.23h.65l-3,14.11H799.49v-.69Z" transform="translate(-34.79 -205.06)"/><polygon class="cls-1" points="693.57 130.11 801.45 132.91 693.57 135.72 693.57 130.11"/><polygon class="cls-1" points="306.03 135.72 198.14 132.91 306.03 130.11 306.03 135.72"/></svg>